<svg id="Capa_1" enable-background="new 0 0 512 512" height="512" viewBox="0 0 512 512" width="512" xmlns="http://www.w3.org/2000/svg"><g><path d="m512 256c0 141.385-114.615 256-256 256s-256-114.615-256-256 114.615-256 256-256c53.677 0 103.496 16.52 144.649 44.754.689.472.584 3.101 1.267 3.58 2.731 1.913 4.598 3.401 7.25 5.417.665.505 2.943-.661 3.603-.15 17.057 13.231 32.397 28.571 45.629 45.628.501.646.107 3.495.602 4.146 2.072 2.724 2.974 4.817 4.938 7.625.436.623 2.878-.277 3.308.35 28.233 41.153 44.754 90.972 44.754 144.65z" fill="#07a9f0"/><path d="m440.695 265.625c0 107.32-87 194.32-194.32 194.32s-194.32-87-194.32-194.32 87-194.32 194.32-194.32 194.32 87 194.32 194.32z" fill="#40c1fa"/><path d="m457.395 273.808-223.547 223.547c-19.526 19.526-51.184 19.526-70.711 0l-148.492-148.492c-19.526-19.526-19.526-51.184 0-70.711l223.547-223.547c6.216-6.216 14.846-9.393 23.61-8.691l71.005 5.69c7.106.569 13.776 3.65 18.817 8.691l100.082 100.082c5.041 5.041 8.122 11.711 8.691 18.817l5.69 71.004c.702 8.763-2.475 17.394-8.692 23.61z" fill="#f44545"/><path d="m28.08 362.298-13.435-13.435c-19.526-19.526-19.526-51.184 0-70.711l223.547-223.547c6.216-6.216 14.847-9.393 23.61-8.691l37.25 2.985-270.972 270.973c-11.716 11.715-11.716 30.71 0 42.426z" fill="#d63030"/><path d="m389.643 164.783c-11.716 11.716-30.711 11.716-42.426 0s-11.716-30.711 0-42.426 30.711-11.716 42.426 0 11.716 30.71 0 42.426z" fill="#d63030"/><path d="m321.773 374.075c-50.768 50.768-133.08 50.768-183.848 0s-50.768-133.08 0-183.848 133.08-50.768 183.848 0 50.768 133.08 0 183.848z" fill="#fc7979"/><path d="m467.246 111.351c-4.071 3.09-8.688 5.559-13.736 7.241l-75.922 25.308c-.777.259-1.578.385-2.371.385-1.958 0-3.875-.767-5.305-2.197-2.009-2.009-2.71-4.98-1.812-7.675l25.308-75.923c1.683-5.048 4.151-9.666 7.241-13.736 4.129 2.833 8.172 5.784 12.122 8.848-2.198 2.841-3.949 6.081-5.133 9.631l-20.564 61.693 61.692-20.565c3.551-1.184 6.79-2.935 9.631-5.133 3.065 3.951 6.016 7.993 8.849 12.123z" fill="#d5f1fe"/><path d="m367.071 157.071-14.142-14.142c-3.905-3.905-3.905-10.237 0-14.142 3.905-3.905 10.237-3.905 14.142 0l14.142 14.142c3.905 3.905 3.905 10.237 0 14.142-3.905 3.905-10.237 3.905-14.142 0z" fill="#0a66ea"/><path d="m363.496 268.502-22.88 16.54c-10.264 7.42-12.765 21.659-5.643 32.133l15.875 23.346c2.645 3.891-.149 9.154-4.853 9.143l-28.232-.067c-12.666-.03-23.058 10.019-23.453 22.679l-.88 28.219c-.147 4.702-5.501 7.318-9.3 4.544l-22.801-16.649c-10.229-7.469-24.544-5.447-32.304 4.562l-17.298 22.312c-2.883 3.718-8.752 2.687-10.195-1.791l-8.66-26.871c-3.885-12.055-16.654-18.833-28.816-15.297l-27.109 7.883c-4.518 1.314-8.66-2.97-7.196-7.441l8.788-26.83c3.943-12.037-2.404-25.026-14.322-29.313l-26.566-9.557c-4.427-1.593-5.26-7.493-1.448-10.249l22.88-16.54c10.264-7.42 12.765-21.659 5.643-32.133l-15.876-23.345c-2.645-3.891.149-9.154 4.853-9.143l28.232.067c12.666.03 23.058-10.019 23.453-22.679l.88-28.219c.147-4.702 5.501-7.318 9.3-4.544l22.801 16.649c10.229 7.469 24.544 5.447 32.304-4.562l17.298-22.312c2.883-3.718 8.752-2.687 10.195 1.791l8.66 26.871c3.885 12.055 16.654 18.833 28.816 15.297l27.109-7.883c4.518-1.314 8.66 2.97 7.196 7.441l-8.788 26.83c-3.943 12.037 2.404 25.026 14.322 29.313l26.566 9.557c4.429 1.592 5.262 7.492 1.449 10.248z" fill="#ffde91"/><path d="m288.077 340.38c-32.159 32.159-84.298 32.159-116.457 0s-32.159-84.298 0-116.457 84.298-32.159 116.457 0 32.159 84.298 0 116.457z" fill="#ffc14f"/><path d="m252.154 361.435c-28.158 7.894-59.694.531-81.55-22.089-30.67-31.743-30.669-82.647.001-114.39 21.856-22.62 53.392-29.983 81.549-22.089-13.336 3.739-25.915 10.9-36.348 21.484-31.438 31.892-31.438 83.709 0 115.601 10.433 10.583 23.012 17.744 36.348 21.483z" fill="#ffa90b"/><path d="m256.175 236.327-39.964 95.227c-1.044 2.488-3.457 3.986-5.997 3.986-.838 0-1.691-.163-2.512-.509-3.311-1.389-4.868-5.198-3.479-8.509l39.964-95.227c1.39-3.31 5.201-4.869 8.509-3.478 3.311 1.39 4.868 5.2 3.479 8.51zm-53.609 40.586c-13.321 0-24.159-12.121-24.159-27.02s10.837-27.021 24.159-27.021c13.321 0 24.158 12.121 24.158 27.021 0 14.899-10.837 27.02-24.158 27.02zm11.158-27.019c0-7.73-5.005-14.021-11.158-14.021s-11.159 6.29-11.159 14.021 5.006 14.02 11.159 14.02 11.158-6.29 11.158-14.02zm66.974 65.107c0 14.899-10.837 27.021-24.158 27.021s-24.159-12.121-24.159-27.021c0-14.898 10.837-27.02 24.159-27.02 13.321 0 24.158 12.122 24.158 27.02zm-13 0c0-7.73-5.005-14.02-11.158-14.02s-11.159 6.289-11.159 14.02 5.006 14.021 11.159 14.021c6.153-.001 11.158-6.291 11.158-14.021z" fill="#0a3575"/></g></svg>