<svg id="Capa_1" enable-background="new 0 0 512 512" height="512" viewBox="0 0 512 512" width="512" xmlns="http://www.w3.org/2000/svg"><g><path d="m512 256.496c-.186 98.202-55.665 183.427-136.963 226.204-3.381 1.779-7.557.524-9.451-2.794-44.08-77.22-127.202-129.272-222.483-129.272-36.679 0-71.556 7.714-103.098 21.608-5.616 2.474-12.191.086-14.851-5.444-16.122-33.528-25.154-71.108-25.154-110.798 0-141.385 114.615-256 255.999-256 141.231 0 256.268 115.265 256.001 256.496z" fill="#356845"/><path d="m470 115.449v281.103c-7.816 11.876-16.594 23.063-26.222 33.449h-2.778v-350.95c10.724 11.208 20.439 23.389 29 36.398zm-120 314.551h39v-392.783c-12.352-7.525-25.39-14.033-39-19.408zm-330-74.633c1.646 3.905 3.386 7.76 5.218 11.563 8.179 16.986 33.782 10.999 33.782-7.853v-266.571c-15.958 19.207-29.16 40.785-39 64.127zm71 74.633h39v-396.896c-13.856 7.849-26.907 16.953-39 27.157z" fill="#489160"/><path d="m67.147 428.833c-16.947-18.508-31.21-39.515-42.171-62.404 2.983-23.64 8.07-44.651 15.099-61.68 1.023-2.477 3.844-3.703 6.352-2.759 27.684 10.422 55.891 49.88 76.193 108.01 5.723 16.388-35.605 40.531-55.473 18.833zm85.941-36.745c7.972-17.725 13.678-40.262 16.912-65.888-23.437-48.943-61.969-89.281-109.567-114.982-1.401-.756-3.124-.616-4.399.337-.019.015-.039.029-.058.043-1.262.945-1.874 2.524-1.57 4.071.891 4.525 1.842 9.053 2.854 13.575 20.283 90.671 58.934 153.202 95.828 162.844zm107.417-31.69c25.671.948 56.106-3.272 89.096-12.057 48.28-53.041 78.514-120.288 86.316-191.358.23-2.094-.8-4.132-2.604-5.22-.027-.017-.055-.033-.082-.049-1.784-1.075-4.024-1.035-5.766.107-5.097 3.341-10.167 6.757-15.201 10.244-100.946 69.929-158.299 148.358-151.759 198.333z" fill="#84b017"/><path d="m231.45 373.82v4.414c0 77.731-92.672 118.279-149.627 65.38-9.763-9.068-18.817-18.888-27.07-29.369v-40.425c0-38.66 31.34-70 70-70h36.696c38.661 0 70.001 31.34 70.001 70z" fill="#e09380"/><path d="m374.754 373.82c0 67.092-57.209 120.01-124.084 114.621-67.512-5.441-141.142-19.839-165.916-42.147v-72.474c0-38.66 31.34-70 70-70h150c38.66 0 70 31.34 70 70z" fill="#faa68e"/><path d="m314.754 305v179.455c-18.866 4.431-38.536 6.774-58.754 6.774-52.206 0-100.762-15.627-141.246-42.459v-143.77c0-2.761 2.239-5 5-5h25v-15c0-8.284 6.716-15 15-15h110c8.284 0 15 6.716 15 15v15h25c2.761 0 5 2.239 5 5z" fill="#df9d28"/><path d="m217.254 410h-5c-2.761 0-5-2.239-5-5v-100c0-2.761 2.239-5 5-5h5c2.761 0 5 2.239 5 5v100c0 2.761-2.239 5-5 5zm77.254-40v-20c0-2.761-2.239-5-5-5h-44.508c-2.761 0-5 2.239-5 5v20c0 2.761 2.239 5 5 5h44.508c2.761 0 5-2.239 5-5z" fill="#edd578"/><path d="m214.754 346c-24.717 0-44.754-20.037-44.754-44.754v-20.246c0-8.284 6.716-15 15-15h59.508c8.284 0 15 6.716 15 15v20.246c0 24.717-20.037 44.754-44.754 44.754z" fill="#fff36c"/><path d="m104.754 213.82c-13.807 0-25-11.193-25-25v-10c0-13.807 11.193-25 25-25 13.807 0 25 11.193 25 25v10c0 13.807-11.193 25-25 25z" fill="#ffbeaa"/><path d="m94.754 173.82v20c0 8.178 3.927 15.439 9.998 20-13.806-.001-24.998-11.194-24.998-25v-10c0-13.806 11.192-24.999 24.998-25-6.071 4.561-9.998 11.822-9.998 20zm230-20v-20c0-60.751-49.249-110-110-110-60.751 0-110 49.249-110 110v40c0 50.351 33.83 92.8 80 105.859v20.321c0 16.569 13.432 30 30 30 16.569 0 30-13.431 30-30v-20.321c33.586-9.499 60.641-34.551 72.895-66.883 2.252.666 4.636 1.024 7.105 1.024 13.807 0 25-11.193 25-25v-10c0-13.807-11.193-25-25-25z" fill="#faa68e"/><path d="m324.754 133.82v40c0 50.792-34.425 93.543-81.216 106.195-9.023 2.44-18.545 2.44-27.568 0-46.791-12.652-81.216-55.403-81.216-106.195v-40c0-55.663 41.345-101.669 95-108.985 53.655 7.316 95 53.322 95 108.985z" fill="#ffbeaa"/><path d="m200.255 180.552c-2.929-2.93-2.929-7.678 0-10.607 2.929-2.928 7.678-2.928 10.606 0 1.042 1.042 2.424 1.616 3.893 1.616s2.851-.574 3.893-1.616c2.929-2.928 7.678-2.928 10.606 0 2.929 2.93 2.929 7.678 0 10.607-3.875 3.875-9.024 6.009-14.5 6.009s-10.623-2.134-14.498-6.009z" fill="#e09380"/><path d="m182.254 141.32c0 8.284-6.716 15-15 15s-15-6.716-15-15 6.716-15 15-15 15 6.716 15 15zm80-15c-8.284 0-15 6.716-15 15s6.716 15 15 15 15-6.716 15-15-6.716-15-15-15z" fill="#0a3575"/><path d="m184.754 133.82c0 4.142-3.358 7.5-7.5 7.5s-7.5-3.358-7.5-7.5 3.358-7.5 7.5-7.5 7.5 3.358 7.5 7.5zm87.5-7.5c-4.142 0-7.5 3.358-7.5 7.5s3.358 7.5 7.5 7.5 7.5-3.358 7.5-7.5-3.358-7.5-7.5-7.5z" fill="#fff5f5"/><path d="m214.754 243.82c-16.569 0-30-13.431-30-30 0-4.142 3.358-7.5 7.5-7.5h45c4.142 0 7.5 3.358 7.5 7.5 0 16.569-13.431 30-30 30z" fill="#fff5f5"/><path d="m222.254 242.875c-2.397.617-4.91.945-7.5.945-16.568 0-30-13.431-30-30 0-4.142 3.358-7.5 7.5-7.5h15c-4.142 0-7.5 3.358-7.5 7.5 0 13.979 9.561 25.725 22.5 29.055z" fill="#d5f1fe"/><path d="m234.042 20h-41.417c-5.523 0-10-4.477-10-10 0-5.523 4.477-10 10-10h41.417c5.523 0 10 4.477 10 10 0 5.523-4.478 10-10 10z" fill="#edd578"/><path d="m328.333 100h-230c0-49.706 40.294-90 90-90h50c49.706 0 90 40.294 90 90z" fill="#df9d28"/><path d="m328.333 100h-180c0-49.706 40.294-90 90-90 49.706 0 90 40.294 90 90z" fill="#e4ab45"/><path d="m300.667 89.375-10.075 10.112-67.201-80.957c-1.094-1.318-3.238-.544-3.238 1.169v74.058h-13.641v-74.059c0-1.713-2.143-2.487-3.238-1.169l-67.201 80.958-10.073-10.112 65.887-79.375h42.893z" fill="#e8b863"/><path d="m373.333 95c0 8.284-6.716 15-15 15h-290c-8.284 0-15-6.716-15-15 0-8.284 6.716-15 15-15h290c8.285 0 15 6.716 15 15z" fill="#edd578"/><path d="m373.333 95c0 8.284-6.716 15-15 15h-228.579c-8.284 0-15-6.716-15-15 0-8.284 6.716-15 15-15h228.579c8.285 0 15 6.716 15 15z" fill="#fff68e"/><path d="m120 416.585c-11.046 0-20-8.954-20-20v-16.585c0-11.046 8.954-20 20-20 11.046 0 20 8.954 20 20v16.585c0 11.045-8.954 20-20 20z" fill="#3f4a4a"/><path d="m190 416.585h-40c-11.046 0-20-8.954-20-20v-26.585c0-11.046 8.954-20 20-20h40c11.046 0 20 8.954 20 20v26.585c0 11.045-8.954 20-20 20z" fill="#9bb9c3"/><path d="m270 400v111.624c-4.635.25-9.303.376-14 .376-68.173 0-130.123-26.648-176-70.096v-41.904c0-11.046 8.954-20 20-20h150c11.046 0 20 8.954 20 20z" fill="#e1ebf0"/><path d="m100 380v78.993c-6.958-5.355-13.634-11.061-20-17.089v-41.904c0-11.046 8.954-20 20-20z" fill="#b4d2d7"/><path d="m265 430c0 35.898-29.102 65-65 65s-65-29.102-65-65 29.101-65 65-65 65 29.102 65 65z" fill="#3f4a4a"/><path d="m90 470h-30c-11.046 0-20-8.954-20-20v-20c0-11.046 8.954-20 20-20h30c16.569 0 30 13.431 30 30 0 16.569-13.431 30-30 30z" fill="#faa68e"/><path d="m90 470h-10c-11.046 0-20-8.954-20-20v-20c0-11.046 8.954-20 20-20h10c16.569 0 30 13.431 30 30 0 16.569-13.431 30-30 30z" fill="#ffbeaa"/><path d="m407.624 383.361c-5.616 27.625-14.494 56.947-26.677 86.571-1.728 4.203-3.5 8.354-5.311 12.451-35.706 18.909-76.42 29.617-119.636 29.617-8.232 0-16.373-.389-24.407-1.148 5.549-28.913 14.716-59.794 27.554-91.01 12.183-29.624 26.502-56.708 41.945-80.292 35.353-53.987 119.388-19.427 106.532 43.811z" fill="#84b017"/><path d="m350.833 295c34.586-15.14 81.733-35.145 105.17-1.726 9.748 13.9 17.568 25.788 21.026 32.448 28.383 54.656 40.336 106.21 32.728 141.135-41.002-2.453-96.146-35.717-146.962-89.662-.202-.214-.407-.433-.615-.656-17.61-18.899-71.871-18.178-72.338-18.837.04-.185 19.412-44.501 60.991-62.702z" fill="#b9e746"/><path d="m369.616 287.05c42.325 45.297 75.356 86.15 87.755 108.087-19.962-10.357-63.329-47.535-112.52-97.266 1.94-1.015 3.934-1.974 5.981-2.871 5.952-2.605 12.275-5.354 18.784-7.95z" fill="#9bcf1b"/><path d="m249.091 430c0 27.112-21.979 49.091-49.091 49.091s-49.091-21.979-49.091-49.091 21.979-49.091 49.091-49.091 49.091 21.979 49.091 49.091z" fill="#07a9f0"/><path d="m249.091 430c0 8.593-2.208 16.67-6.087 23.695-7.025 3.879-15.102 6.087-23.695 6.087-27.112 0-49.091-21.979-49.091-49.091 0-8.593 2.208-16.67 6.087-23.695 7.025-3.879 15.102-6.087 23.695-6.087 27.112 0 49.091 21.979 49.091 49.091z" fill="#72d1fb"/><path d="m227.445 404.638c11.027 11.027 16.484 23.449 12.189 27.745-4.296 4.296-16.718-1.161-27.745-12.189-11.027-11.027-16.484-23.449-12.189-27.745 4.296-4.295 16.718 1.162 27.745 12.189z" fill="#b4e7fd"/></g></svg>