<svg id="Capa_1" enable-background="new 0 0 512 512" height="512" viewBox="0 0 512 512" width="512" xmlns="http://www.w3.org/2000/svg"><g><path d="m511.165 235.173c.553 6.869.835 13.815.835 20.827 0 41.112-9.691 79.961-26.914 114.386-3.015 6.026-9.213 9.799-15.951 9.799h-427.174c-6.19 0-11.86-3.481-14.649-9.007-16.868-33.425-26.623-71.053-27.277-110.894-2.355-143.517 114.868-261.613 258.398-260.273 1.405.013 2.808.038 4.208.073 2.637.067 8.521 5.552 8.895 8.155 7.736 53.823 32.622 105.655 74.66 146.669 46.128 45.005 164.76 77.676 164.969 80.265z" fill="#ffc14f"/><path d="m507.285 206.845c1.804 9.274 3.107 18.726 3.88 28.328-30.455 50.519-85.698 84.408-148.889 84.823-95.731.63-174.75-76.559-176.254-172.28-.964-61.356 29.637-115.627 76.62-147.631 68.297 1.739 129.944 30.227 174.856 75.377 3.161 51.776 28.822 97.473 67.33 127.437 1.263.983 2.151 2.374 2.457 3.946z" fill="#ffcd71"/><path d="m426 252c-53.019 0-96-42.981-96-96 0-51.292 40.226-93.189 90.852-95.864 43.861 36.954 75.135 88.372 86.471 146.903-16.988 27.01-47.059 44.961-81.323 44.961z" fill="#ffe89c"/><path d="m162.729 494.477c-59.292-23.207-107.817-67.888-136.008-124.477h458.557c-28.261 56.729-76.957 101.492-136.45 124.65-6.393 2.489-13.202 3.744-20.063 3.744h-145.058c-7.174 0-14.297-1.302-20.978-3.917z" fill="#6dc54a"/><path d="m223.357 494.477c6.681 2.615 13.804 3.916 20.978 3.916h-60.628c-7.174 0-14.298-1.302-20.978-3.916-59.292-23.207-107.817-67.888-136.008-124.477h60.628c28.191 56.589 76.716 101.27 136.008 124.477z" fill="#5db33a"/><path d="m317.473 112.977c-2.284 1.848-5.325 2.134-7.829.995-1.026-.467-1.962-1.173-2.719-2.109-2.605-3.22-2.106-7.943 1.114-10.548l34.77-28.126c3.22-2.605 7.943-2.107 10.548 1.114 2.605 3.22 2.106 7.943-1.114 10.548zm-12.247-59.029c-1.452-3.879-5.775-5.846-9.654-4.393l-41.88 15.687c-3.879 1.453-5.846 5.775-4.393 9.654.726 1.94 2.17 3.401 3.917 4.196s3.798.923 5.737.197l41.88-15.687c3.879-1.453 5.846-5.775 4.393-9.654zm135.526 63.804c-.151-4.139-3.63-7.373-7.77-7.22-4.139.151-7.372 3.63-7.22 7.77l1.639 44.691c.107 2.937 1.889 5.416 4.393 6.556 1.026.467 2.173.709 3.376.664 4.139-.151 7.372-3.63 7.22-7.77zm64.54 61.965-15.688-41.88c-1.453-3.879-5.776-5.845-9.654-4.393-3.879 1.453-5.846 5.775-4.392 9.654l15.688 41.88c.726 1.939 2.17 3.401 3.917 4.196s3.798.923 5.737.197c3.878-1.453 5.845-5.775 4.392-9.654zm-70.381-179.042c-3.77-1.715-8.217-.05-9.933 3.721l-107.675 236.656c-1.715 3.77-.05 8.217 3.721 9.933 3.77 1.715 8.217.05 9.933-3.721l107.675-236.656c1.715-3.77.049-8.217-3.721-9.933z" fill="#c88a1d"/><path d="m504.906 172.95-68.026-30.951c-27.815-29.921-66.214-47.798-107.016-49.822l-2.791-.138-68.027-30.951c-4.398-2.001-3.682-8.456 1.047-9.445l163.978-34.287c2.138-.447 4.318.545 5.385 2.45l81.882 146.15c2.363 4.214-2.034 8.995-6.432 6.994z" fill="#f44545"/><path d="m436.88 141.999-109.807-49.961 99.452-74.58c.439.131.857.321 1.244.566z" fill="#fc7979"/><path d="m349.325 494.457c-7.589 2.973-15.355 5.593-23.278 7.842-2.504.711-6.147 1.306-10.681 1.786-83.396 8.831-158.819-50.077-171.382-132.993l-23.984-158.292h272z" fill="#93dcfc"/><path d="m186.803 502.538c-8.217-2.302-16.267-5.003-24.127-8.082l-42.676-281.656h38l42.106 277.902c1.151 7.594-5.907 13.908-13.303 11.836z" fill="#72d1fb"/><path d="m400 225.4h-290c-5.523 0-10-4.477-10-10 0-5.523 4.477-10 10-10h290c5.523 0 10 4.477 10 10 0 5.523-4.477 10-10 10z" fill="#d5f1fe"/><path d="m162.845 301.694c-.762-6.612 4.693-12.306 11.328-11.778.121.01.242.019.363.027 4.594.317 8.981-.709 12.953-2.805 9.476-5 20.925-5.221 30.35-.126 3.562 1.925 7.462 2.987 11.551 2.987s7.99-1.062 11.551-2.987c9.343-5.051 20.772-5.051 30.115 0 3.561 1.925 7.462 2.987 11.551 2.987s7.99-1.062 11.552-2.987c9.426-5.095 20.874-4.875 30.35.126 3.972 2.096 8.359 3.121 12.953 2.805.121-.008.242-.018.363-.027 6.635-.529 12.089 5.165 11.328 11.778l-5.665 49.181c-.599 5.201-5.002 9.126-10.237 9.126h-154.503c-5.235 0-9.638-3.925-10.237-9.126z" fill="#fc7979"/><path d="m343.813 348.069-6.845 59.423c-1.478 12.827-12.338 22.508-25.25 22.508h-111.436c-12.912 0-23.772-9.681-25.25-22.508l-6.845-59.423c1.806-1.015 3.939-1.532 6.201-1.361.049.004.099.007.148.011 4.595.317 8.981-.709 12.953-2.805 9.476-5.001 20.924-5.221 30.349-.126 3.562 1.925 7.462 2.987 11.552 2.987 4.089 0 7.99-1.062 11.551-2.987 9.343-5.051 20.772-5.051 30.115 0 3.561 1.925 7.462 2.987 11.551 2.987s7.99-1.062 11.552-2.987c9.425-5.095 20.874-4.875 30.349.126 3.972 2.096 8.359 3.122 12.953 2.805.049-.003.099-.007.148-.011 2.265-.171 4.398.345 6.204 1.361zm-140.884-19.533c1.953 1.953 5.118 1.953 7.071 0l8.536-8.536c1.953-1.953 1.953-5.118 0-7.071l-8.536-8.536c-1.953-1.953-5.118-1.953-7.071 0l-8.536 8.536c-1.953 1.953-1.953 5.118 0 7.071zm117.071 0c1.953 1.953 5.118 1.953 7.071 0l8.536-8.536c1.953-1.953 1.953-5.118 0-7.071l-8.536-8.536c-1.953-1.953-5.118-1.953-7.071 0l-8.536 8.536c-1.953 1.953-1.953 5.118 0 7.071z" fill="#f44545"/><path d="m182.455 471.934-7.509-65.191c4.341.225 8.49-.748 12.271-2.688 9.63-4.94 21.101-5.415 30.622-.268 3.562 1.925 7.463 2.987 11.552 2.987s7.99-1.062 11.551-2.987c9.343-5.051 20.772-5.051 30.115 0 3.561 1.925 7.462 2.987 11.551 2.987s7.99-1.062 11.552-2.987c9.521-5.147 20.992-4.672 30.622.268 3.781 1.94 7.93 2.912 12.271 2.688l-7.509 65.191c-1.185 10.296-9.902 18.066-20.266 18.066h-106.556c-10.364 0-19.081-7.77-20.267-18.066z" fill="#ffc14f"/><path d="m326.047 502.299c-22.262 6.319-45.76 9.701-70.047 9.701s-47.785-3.382-70.047-9.701l-4.17-36.204c1.976-.485 3.885-1.22 5.707-2.182 9.476-5 20.924-5.221 30.35-.126 3.562 1.925 7.462 2.987 11.552 2.987 4.089 0 7.99-1.062 11.551-2.987 9.343-5.051 20.772-5.051 30.115 0 3.561 1.925 7.462 2.987 11.551 2.987s7.99-1.062 11.552-2.987c9.425-5.095 20.874-4.875 30.35.126 1.822.961 3.731 1.697 5.707 2.182z" fill="#f29500"/><path d="m290 448.536-8.536-8.536c-1.953-1.953-1.953-5.118 0-7.071l8.536-8.536c1.953-1.953 5.118-1.953 7.071 0l8.536 8.536c1.953 1.953 1.953 5.118 0 7.071l-8.536 8.536c-1.953 1.952-5.118 1.952-7.071 0z" fill="#ffd993"/><path d="m204.929 449.869-8.536-8.536c-1.953-1.953-1.953-5.118 0-7.071l8.536-8.536c1.953-1.953 5.118-1.953 7.071 0l8.536 8.536c1.953 1.953 1.953 5.118 0 7.071l-8.536 8.536c-1.953 1.953-5.119 1.953-7.071 0z" fill="#ffa90b"/><path d="m240 478.536-8.536-8.536c-1.953-1.953-1.953-5.118 0-7.071l8.536-8.536c1.953-1.953 5.118-1.953 7.071 0l8.536 8.536c1.953 1.953 1.953 5.118 0 7.071l-8.536 8.536c-1.953 1.952-5.118 1.952-7.071 0z" fill="#f44545"/><path d="m212.929 388.536-8.536-8.536c-1.953-1.953-1.953-5.118 0-7.071l8.536-8.536c1.953-1.953 5.118-1.953 7.071 0l8.536 8.536c1.953 1.953 1.953 5.118 0 7.071l-8.536 8.536c-1.953 1.952-5.119 1.952-7.071 0z" fill="#fc7979"/><path d="m282.929 358.536-8.536-8.536c-1.953-1.953-1.953-5.118 0-7.071l8.536-8.536c1.953-1.953 5.118-1.953 7.071 0l8.536 8.536c1.953 1.953 1.953 5.118 0 7.071l-8.536 8.536c-1.953 1.952-5.119 1.952-7.071 0z" fill="#fdbcbc"/><path d="m272.929 308.536-8.536-8.536c-1.953-1.953-1.953-5.118 0-7.071l8.536-8.536c1.953-1.953 5.118-1.953 7.071 0l8.536 8.536c1.953 1.953 1.953 5.118 0 7.071l-8.536 8.536c-1.953 1.952-5.119 1.952-7.071 0z" fill="#fff5f5"/><path d="m240 210c0 55.228-44.772 100-100 100s-100-44.771-100-100 44.772-100 100-100 100 44.772 100 100z" fill="#54a770"/><path d="m225 210c0 46.944-38.056 85-85 85s-85-38.056-85-85 38.056-85 85-85 85 38.056 85 85z" fill="#82cd64"/><path d="m210 210c0 38.66-31.34 70-70 70s-70-31.34-70-70 31.34-70 70-70 70 31.34 70 70z" fill="#fb5858"/><path d="m172.907 173.276c-1.378 8.567 4.308 16.676 12.832 18.299 3.762.717 5.184 5.355 2.469 8.056-6.15 6.121-6.316 16.023-.375 22.347 2.622 2.791 1.046 7.379-2.738 7.969-8.573 1.337-14.528 9.251-13.438 17.859.481 3.8-3.491 6.585-6.899 4.838-7.722-3.958-17.191-1.056-21.369 6.549-1.844 3.357-6.695 3.275-8.425-.141-3.921-7.74-13.287-10.958-21.137-7.262-3.465 1.632-7.341-1.285-6.733-5.067 1.378-8.567-4.308-16.676-12.832-18.299-3.762-.717-5.184-5.355-2.469-8.056 6.15-6.121 6.316-16.023.375-22.347-2.622-2.791-1.046-7.379 2.738-7.969 8.573-1.337 14.528-9.251 13.438-17.859-.481-3.8 3.491-6.585 6.899-4.838 7.722 3.958 17.191 1.056 21.369-6.549 1.844-3.357 6.695-3.275 8.425.141 3.921 7.74 13.287 10.958 21.137 7.262 3.465-1.631 7.341 1.286 6.733 5.067z" fill="#fd9a9a"/><path d="m165 210c0 13.807-11.193 25-25 25s-25-11.193-25-25 11.193-25 25-25 25 11.193 25 25z" fill="#fff5f5"/><path d="m150 210c0 5.523-4.477 10-10 10s-10-4.477-10-10 4.477-10 10-10 10 4.477 10 10z" fill="#fc7979"/><path d="m145 185c0 5.523-2.239 10-5 10s-5-4.477-5-10 2.239-10 5-10 5 4.477 5 10zm-5 40c-2.761 0-5 4.477-5 10s2.239 10 5 10 5-4.477 5-10-2.239-10-5-10zm-19.151-31.83c-4.783-2.761-9.78-3.061-11.16-.67-1.381 2.391 1.377 6.569 6.16 9.33s9.78 3.061 11.16.67c1.381-2.391-1.377-6.569-6.16-9.33zm43.302 25c-4.783-2.761-9.78-3.061-11.16-.67-1.381 2.391 1.377 6.569 6.16 9.33s9.78 3.061 11.16.67-1.378-6.569-6.16-9.33zm-48.302 0c-4.783 2.761-7.541 6.939-6.16 9.33s6.377 2.092 11.16-.67c4.783-2.761 7.541-6.939 6.16-9.33-1.38-2.391-6.377-2.092-11.16.67zm48.302-16.34c4.783-2.761 7.541-6.939 6.16-9.33s-6.377-2.092-11.16.67-7.541 6.939-6.16 9.33c1.38 2.391 6.377 2.092 11.16-.67z" fill="#af2727"/></g></svg>