<svg width="880" height="323" viewBox="0 0 880 323" fill="none" xmlns="http://www.w3.org/2000/svg">
<path d="M269.35 54.8998C262.839 49.9506 261.145 50.3066 257.258 57.2941C255.966 59.6194 254.881 62.0653 253.825 64.5112C252.079 68.5704 251.293 72.245 254.778 76.2871C257.895 79.91 256.54 85.5883 252.86 88.7577C249.186 91.9213 243.817 91.9098 240.137 88.729C236.462 85.5482 235.618 80.3348 238.156 76.1435C238.885 74.9378 240.43 73.8469 240.476 72.6584C240.826 63.7303 244.523 55.9161 248.135 47.6885C244.351 51.0243 240.108 50.4329 235.911 50.3238C209.035 49.6349 182.153 49.032 155.277 48.32C149.558 48.1708 144.087 49.0607 139.844 53.0166C127.075 64.9131 114.518 77.0335 101.864 89.0505C100.112 90.7155 99.3085 92.0935 102.386 93.2303C110.866 96.3537 117.015 102.601 122.895 109.071C125.341 111.764 127.93 113.136 131.593 113.349C137.467 113.687 143.226 114.939 148.674 117.27C150.632 118.108 153.072 119.027 152.946 121.467C152.82 123.838 150.379 124.717 148.353 125.412C145.603 126.353 142.783 127.094 139.557 128.047C142.45 131.647 145.27 134.644 147.48 138.037C150.024 141.942 153.377 143.79 157.924 144.181C162.552 144.577 167.036 145.783 171.261 147.769C172.852 148.521 174.787 149.36 174.821 151.375C174.861 153.7 172.766 154.55 170.951 155.262C168.534 156.209 166.037 156.95 162.867 158.012C167.466 163.696 171.485 169.352 176.216 174.324C180.965 179.319 186.723 182.149 194.216 181.966C206.486 181.667 218.801 182.029 231.048 182.827C242.244 183.562 253.555 184.831 261.478 194.436C262.328 195.464 262.896 195.791 263.999 194.833C269.907 189.7 274.982 184.136 275.166 175.639C275.912 140.925 276.733 106.212 277.457 71.4986C277.6 64.6834 274.81 59.051 269.35 54.8998Z" fill="#239AD4"/>
<path d="M194.055 211.369C185.334 210.99 178.972 214.429 173.294 220.165C170.676 222.812 168.414 225.815 166.025 228.685C161.725 233.853 161.742 233.859 168.029 236.511C168.683 236.787 169.349 237.057 169.952 237.424C171.307 238.251 172.938 238.986 172.978 240.852C173.024 243.022 171.181 243.797 169.608 244.538C165.704 246.375 161.42 247.684 157.258 247.569C145.872 247.254 143.438 257.284 136.852 263.146C140.251 264.277 142.806 265.012 145.275 265.982C147.399 266.821 150.109 267.693 149.977 270.386C149.845 273.039 147.026 273.734 144.908 274.491C139 276.604 132.787 277.265 126.581 277.684C124.118 277.85 122.252 278.499 120.523 280.308C112.468 288.702 103.649 295.982 91.1152 298.623C96.5238 304.307 101.37 309.452 106.273 314.544C116.217 324.868 127.585 325.097 138.064 315.101C173.202 281.582 208.317 248.034 243.409 214.469C244.483 213.442 246.142 212.735 246.188 210.554C242.606 210.984 239.138 211.581 235.647 211.788C221.781 212.592 207.898 211.972 194.055 211.369Z" fill="#0E2F56"/>
<path d="M125.248 219.011C126.505 213.987 123.79 210.18 118.531 209.974C111.773 209.71 105.003 209.669 98.2399 209.578C85.9186 209.405 73.7351 208.119 61.8214 204.847C54.277 202.774 53.1746 203.13 48.3345 209.17C41.8523 217.26 34.7271 224.609 24.0938 228.49C45.0044 250.394 65.7314 272.097 86.7282 294.093C102.42 271 114.173 246.369 124.617 221.055C124.892 220.395 125.076 219.7 125.248 219.011Z" fill="#0E2F56"/>
<path d="M31.2822 160.837C39.0218 165.832 44.993 172.584 50.2177 180.106C52.7555 183.757 56.0626 185.405 60.7477 183.746C63.8941 182.632 67.3046 182.201 70.6232 181.639C86.3492 178.963 102.179 179.979 117.985 180.473C121.47 180.582 124.329 180.043 125.627 176.351C126.775 174.617 126.758 172.854 125.736 171.074C117.893 146.46 107.093 123.178 94.2438 100.804C92.4525 97.6803 91.2812 99.1846 89.6506 100.752C79.6489 110.358 69.6069 119.923 59.5707 129.5C50.3096 138.342 41.0256 147.155 31.8047 156.037C30.4267 157.364 27.9234 158.673 31.2822 160.837Z" fill="#0E2F56"/>
<path d="M330.963 12.2352C330.567 5.23051 326.174 0.6947 319.187 0.0975808C313.336 -0.396191 307.784 1.02197 302.628 3.49083C278.439 15.0715 259.888 32.675 247.28 56.3818C244.501 61.6066 242.756 67.2448 243.249 73.3079C243.617 77.8035 245.202 81.5814 249.789 83.367C250.891 84.1077 252.218 85.3708 253.245 83.7747C254.399 81.9891 254.336 79.8992 252.803 78.1193C249.577 75.0935 249.02 71.4189 250.369 67.4056C251.328 64.552 252.246 61.6181 253.682 58.9942C265.538 37.2281 282.705 20.9451 304.885 9.9558C308.399 8.21611 312.136 6.94149 316.081 6.63145C322.023 6.16064 325.193 9.57111 324.262 15.4677C323.476 20.4571 321.357 24.9871 318.819 29.299C310.006 44.2557 298.322 56.5541 284.141 66.5156C279.002 70.1271 278.979 70.1443 280.707 77.2408C300.492 64.2535 317.252 48.7341 327.593 27.1861C329.832 22.5183 331.256 17.5404 330.963 12.2352Z" fill="#239AD4"/>
<path d="M30.4212 196.366C29.9102 196.17 29.4107 195.958 28.9973 195.648C27.4987 194.511 27.671 191.818 29.3016 190.882C30.5245 190.182 32.3159 190.326 33.0508 189.12C33.556 188.287 33.2747 187.219 32.9704 186.295C30.5934 179.141 27.6021 172.194 24.0423 165.551C23.9103 165.304 23.761 165.046 23.5026 164.931C23.0777 164.747 22.6184 165.069 22.2682 165.373C17.3936 169.587 12.6798 173.985 8.13253 178.555C6.08854 180.611 3.59672 182.574 2.50583 185.279C1.35752 188.121 0.226435 190.957 0.0312232 194.052C-0.364943 200.356 3.06275 206.31 7.24833 211.047C11.4339 215.784 16.4692 219.739 20.385 224.7C25.5294 217.173 29.6748 208.963 32.6718 200.356C32.9302 199.621 33.1771 198.812 32.9015 198.082C32.5226 197.095 31.4604 196.762 30.4212 196.366Z" fill="#0E2F56"/>
<path d="M353.256 186.24C353.256 189.099 352.595 191.701 351.272 194.048C349.949 196.352 347.987 198.187 345.384 199.552C342.824 200.917 339.709 201.6 336.04 201.6H330.408V216H316.2V170.688H336.04C341.587 170.688 345.832 172.096 348.776 174.912C351.763 177.728 353.256 181.504 353.256 186.24ZM334.44 190.4C337.384 190.4 338.856 189.013 338.856 186.24C338.856 183.467 337.384 182.08 334.44 182.08H330.408V190.4H334.44ZM386.819 209.152H371.715L369.475 216H354.562L371.139 170.688H387.523L404.035 216H389.059L386.819 209.152ZM383.363 198.464L379.267 185.856L375.171 198.464H383.363ZM435.039 186.176C434.484 185.28 433.695 184.597 432.671 184.128C431.647 183.616 430.409 183.36 428.959 183.36C426.228 183.36 424.116 184.256 422.623 186.048C421.129 187.797 420.383 190.208 420.383 193.28C420.383 196.821 421.215 199.467 422.878 201.216C424.543 202.965 427.103 203.84 430.559 203.84C433.844 203.84 436.489 202.517 438.495 199.872H427.167V189.824H450.271V204.032C448.308 207.403 445.599 210.304 442.143 212.736C438.687 215.125 434.313 216.32 429.023 216.32C424.329 216.32 420.233 215.36 416.735 213.44C413.279 211.477 410.612 208.747 408.735 205.248C406.9 201.749 405.983 197.76 405.983 193.28C405.983 188.8 406.9 184.811 408.735 181.312C410.612 177.813 413.279 175.104 416.735 173.184C420.191 171.221 424.244 170.24 428.895 170.24C434.825 170.24 439.647 171.669 443.359 174.528C447.113 177.387 449.332 181.269 450.015 186.176H435.039ZM469.596 182.016V187.584H483.676V198.272H469.596V204.672H485.596V216H455.388V170.688H485.596V182.016H469.596ZM545.281 216H531.073L516.033 193.216V216H501.825V170.688H516.033L531.073 193.856V170.688H545.281V216ZM573.78 216.448C569.513 216.448 565.588 215.445 562.004 213.44C558.463 211.435 555.647 208.661 553.556 205.12C551.465 201.579 550.42 197.589 550.42 193.152C550.42 188.715 551.465 184.725 553.556 181.184C555.647 177.643 558.463 174.891 562.004 172.928C565.588 170.923 569.513 169.92 573.78 169.92C578.047 169.92 581.951 170.923 585.492 172.928C589.033 174.891 591.828 177.643 593.876 181.184C595.967 184.725 597.012 188.715 597.012 193.152C597.012 197.589 595.967 201.579 593.876 205.12C591.828 208.661 589.012 211.435 585.428 213.44C581.887 215.445 578.004 216.448 573.78 216.448ZM573.78 203.2C576.596 203.2 578.772 202.304 580.308 200.512C581.844 198.677 582.612 196.224 582.612 193.152C582.612 190.037 581.844 187.584 580.308 185.792C578.772 183.957 576.596 183.04 573.78 183.04C570.921 183.04 568.724 183.957 567.188 185.792C565.652 187.584 564.884 190.037 564.884 193.152C564.884 196.224 565.652 198.677 567.188 200.512C568.724 202.304 570.921 203.2 573.78 203.2ZM637.722 170.688V181.952H625.69V216H611.482V181.952H599.578V170.688H637.722ZM684.45 170.688V181.952H666.658V188.224H679.458V198.912H666.658V216H652.45V170.688H684.45ZM711.343 216.448C707.076 216.448 703.151 215.445 699.567 213.44C696.025 211.435 693.209 208.661 691.119 205.12C689.028 201.579 687.983 197.589 687.983 193.152C687.983 188.715 689.028 184.725 691.119 181.184C693.209 177.643 696.025 174.891 699.567 172.928C703.151 170.923 707.076 169.92 711.343 169.92C715.609 169.92 719.513 170.923 723.055 172.928C726.596 174.891 729.391 177.643 731.439 181.184C733.529 184.725 734.575 188.715 734.575 193.152C734.575 197.589 733.529 201.579 731.439 205.12C729.391 208.661 726.575 211.435 722.991 213.44C719.449 215.445 715.567 216.448 711.343 216.448ZM711.343 203.2C714.159 203.2 716.335 202.304 717.871 200.512C719.407 198.677 720.175 196.224 720.175 193.152C720.175 190.037 719.407 187.584 717.871 185.792C716.335 183.957 714.159 183.04 711.343 183.04C708.484 183.04 706.287 183.957 704.751 185.792C703.215 187.584 702.447 190.037 702.447 193.152C702.447 196.224 703.215 198.677 704.751 200.512C706.287 202.304 708.484 203.2 711.343 203.2ZM753.588 170.688V196.224C753.588 198.315 754.036 199.979 754.932 201.216C755.871 202.411 757.364 203.008 759.412 203.008C761.46 203.008 762.975 202.411 763.956 201.216C764.937 199.979 765.428 198.315 765.428 196.224V170.688H779.572V196.224C779.572 200.533 778.676 204.224 776.884 207.296C775.092 210.325 772.639 212.608 769.524 214.144C766.409 215.68 762.932 216.448 759.092 216.448C755.252 216.448 751.839 215.68 748.852 214.144C745.908 212.608 743.604 210.325 741.94 207.296C740.276 204.267 739.444 200.576 739.444 196.224V170.688H753.588ZM829.156 216H814.948L799.908 193.216V216H785.7V170.688H799.908L814.948 193.856V170.688H829.156V216ZM854.455 170.688C859.191 170.688 863.33 171.648 866.871 173.568C870.455 175.488 873.207 178.155 875.127 181.568C877.047 184.981 878.007 188.864 878.007 193.216C878.007 197.525 877.047 201.408 875.127 204.864C873.207 208.32 870.455 211.051 866.871 213.056C863.33 215.019 859.191 216 854.455 216H835.575V170.688H854.455ZM853.175 203.328C856.375 203.328 858.914 202.453 860.791 200.704C862.668 198.955 863.607 196.459 863.607 193.216C863.607 189.973 862.668 187.477 860.791 185.728C858.914 183.979 856.375 183.104 853.175 183.104H849.783V203.328H853.175Z" fill="#239AD4"/>
</svg>
