<svg width="567" height="372" viewBox="0 0 567 372" fill="none" xmlns="http://www.w3.org/2000/svg">
<path d="M401.29 46.939C395.723 42.7076 394.275 43.0119 390.951 48.986C389.847 50.9742 388.919 53.0654 388.016 55.1566C386.524 58.6272 385.851 61.7689 388.831 65.2247C391.496 68.3223 390.338 73.1772 387.191 75.8869C384.05 78.5917 379.46 78.5819 376.313 75.8623C373.171 73.1428 372.45 68.6855 374.62 65.102C375.243 64.0711 376.563 63.1384 376.603 62.1223C376.902 54.4889 380.063 47.8079 383.151 40.7734C379.916 43.6255 376.289 43.1199 372.7 43.0266C349.721 42.4376 326.738 41.9221 303.759 41.3134C298.87 41.1858 294.192 41.9467 290.564 45.3289C279.647 55.5002 268.911 65.8629 258.092 76.1372C256.595 77.5608 255.907 78.739 258.538 79.7109C265.789 82.3814 271.046 87.7223 276.073 93.2546C278.164 95.5569 280.378 96.7301 283.51 96.9118C288.532 97.2014 293.456 98.2715 298.114 100.265C299.788 100.981 301.874 101.767 301.766 103.853C301.658 105.88 299.572 106.631 297.839 107.225C295.488 108.03 293.078 108.664 290.319 109.479C292.793 112.556 295.203 115.119 297.093 118.02C299.268 121.358 302.134 122.939 306.022 123.273C309.979 123.611 313.813 124.642 317.426 126.341C318.786 126.984 320.44 127.7 320.469 129.423C320.504 131.412 318.712 132.138 317.161 132.747C315.094 133.557 312.959 134.19 310.249 135.098C314.181 139.958 317.617 144.793 321.662 149.044C325.722 153.315 330.645 155.735 337.052 155.578C347.542 155.323 358.072 155.632 368.542 156.315C378.115 156.943 387.785 158.028 394.56 166.24C395.286 167.119 395.772 167.399 396.715 166.579C401.766 162.19 406.105 157.434 406.262 150.169C406.9 120.489 407.602 90.81 408.221 61.1307C408.344 55.3038 405.958 50.4882 401.29 46.939Z" fill="#239AD4"/>
<path d="M336.914 180.717C329.458 180.393 324.019 183.333 319.164 188.237C316.925 190.5 314.991 193.067 312.949 195.522C309.272 199.94 309.287 199.945 314.662 202.213C315.222 202.448 315.791 202.679 316.307 202.993C317.465 203.7 318.859 204.328 318.894 205.924C318.933 207.779 317.357 208.442 316.012 209.075C312.674 210.646 309.012 211.765 305.453 211.667C295.719 211.397 293.637 219.973 288.007 224.985C290.913 225.952 293.097 226.581 295.208 227.41C297.024 228.127 299.341 228.873 299.229 231.175C299.116 233.443 296.705 234.037 294.894 234.685C289.843 236.492 284.531 237.056 279.225 237.415C277.119 237.557 275.523 238.112 274.046 239.658C267.159 246.835 259.618 253.059 248.902 255.317C253.527 260.177 257.67 264.576 261.862 268.93C270.364 277.756 280.084 277.952 289.043 269.406C319.085 240.748 349.108 212.065 379.111 183.367C380.029 182.489 381.448 181.885 381.487 180.02C378.424 180.388 375.459 180.898 372.474 181.075C360.619 181.762 348.75 181.232 336.914 180.717Z" fill="#0E2F56"/>
<path d="M278.085 187.251C279.16 182.956 276.838 179.701 272.341 179.524C266.564 179.298 260.776 179.264 254.993 179.185C244.459 179.038 234.042 177.939 223.856 175.141C217.406 173.368 216.463 173.673 212.325 178.837C206.783 185.754 200.691 192.037 191.6 195.355C209.478 214.083 227.199 232.639 245.151 251.445C258.567 231.701 268.616 210.642 277.545 188.998C277.78 188.434 277.938 187.84 278.085 187.251Z" fill="#0E2F56"/>
<path d="M197.744 137.512C204.362 141.783 209.467 147.556 213.934 153.986C216.104 157.108 218.931 158.517 222.937 157.099C225.627 156.146 228.543 155.778 231.38 155.297C244.826 153.01 258.36 153.878 271.874 154.301C274.854 154.394 277.298 153.932 278.408 150.776C279.389 149.293 279.375 147.786 278.501 146.265C271.795 125.22 262.562 105.315 251.576 86.1845C250.044 83.5141 249.043 84.8002 247.648 86.1403C239.097 94.3529 230.511 102.531 221.931 110.719C214.013 118.279 206.075 125.814 198.191 133.408C197.013 134.542 194.873 135.661 197.744 137.512Z" fill="#0E2F56"/>
<path d="M453.967 10.4609C453.628 4.472 449.873 0.593957 443.899 0.0834299C438.897 -0.338737 434.15 0.873765 429.742 2.9846C409.06 12.8859 393.2 27.9366 382.42 48.2055C380.044 52.6726 378.551 57.4932 378.974 62.677C379.288 66.5207 380.643 69.7507 384.565 71.2774C385.507 71.9106 386.641 72.9906 387.52 71.6259C388.507 70.0992 388.453 68.3124 387.142 66.7906C384.383 64.2036 383.907 61.0619 385.061 57.6306C385.88 55.1909 386.666 52.6824 387.893 50.4391C398.03 31.8294 412.708 17.9077 431.671 8.51203C434.675 7.02463 437.871 5.93485 441.243 5.66977C446.324 5.26724 449.034 8.18314 448.238 13.2246C447.566 17.4904 445.754 21.3636 443.585 25.0502C436.05 37.8379 426.06 48.3528 413.935 56.8697C409.541 59.9574 409.522 59.9722 410.999 66.0396C427.915 54.9356 442.245 41.6668 451.086 23.2437C453 19.2527 454.217 14.9967 453.967 10.4609Z" fill="#239AD4"/>
<path d="M197.01 167.889C196.573 167.722 196.146 167.541 195.792 167.275C194.511 166.304 194.658 164.001 196.052 163.201C197.098 162.602 198.63 162.725 199.258 161.694C199.69 160.982 199.449 160.069 199.189 159.279C197.157 153.162 194.599 147.223 191.556 141.543C191.443 141.332 191.315 141.111 191.094 141.013C190.731 140.856 190.338 141.131 190.039 141.391C185.871 144.994 181.841 148.754 177.953 152.662C176.206 154.419 174.075 156.098 173.142 158.41C172.161 160.84 171.194 163.265 171.027 165.911C170.688 171.301 173.619 176.391 177.197 180.441C180.776 184.491 185.081 187.873 188.429 192.115C192.827 185.679 196.371 178.659 198.934 171.301C199.155 170.672 199.366 169.98 199.13 169.357C198.806 168.513 197.898 168.228 197.01 167.889Z" fill="#0E2F56"/>
<path d="M40.256 316.24C40.256 319.099 39.5947 321.701 38.272 324.048C36.9493 326.352 34.9867 328.187 32.384 329.552C29.824 330.917 26.7093 331.6 23.04 331.6H17.408V346H3.2V300.688H23.04C28.5867 300.688 32.832 302.096 35.776 304.912C38.7627 307.728 40.256 311.504 40.256 316.24ZM21.44 320.4C24.384 320.4 25.856 319.013 25.856 316.24C25.856 313.467 24.384 312.08 21.44 312.08H17.408V320.4H21.44ZM73.8185 339.152H58.7145L56.4745 346H41.5625L58.1385 300.688H74.5225L91.0345 346H76.0585L73.8185 339.152ZM70.3625 328.464L66.2665 315.856L62.1705 328.464H70.3625ZM122.039 316.176C121.484 315.28 120.695 314.597 119.671 314.128C118.647 313.616 117.409 313.36 115.959 313.36C113.228 313.36 111.116 314.256 109.623 316.048C108.129 317.797 107.383 320.208 107.383 323.28C107.383 326.821 108.215 329.467 109.878 331.216C111.543 332.965 114.103 333.84 117.559 333.84C120.844 333.84 123.489 332.517 125.495 329.872H114.167V319.824H137.271V334.032C135.308 337.403 132.599 340.304 129.143 342.736C125.687 345.125 121.313 346.32 116.023 346.32C111.329 346.32 107.233 345.36 103.735 343.44C100.279 341.477 97.6118 338.747 95.7345 335.248C93.8998 331.749 92.9825 327.76 92.9825 323.28C92.9825 318.8 93.8998 314.811 95.7345 311.312C97.6118 307.813 100.279 305.104 103.735 303.184C107.191 301.221 111.244 300.24 115.895 300.24C121.825 300.24 126.647 301.669 130.359 304.528C134.113 307.387 136.332 311.269 137.015 316.176H122.039ZM156.596 312.016V317.584H170.676V328.272H156.596V334.672H172.596V346H142.388V300.688H172.596V312.016H156.596ZM232.281 346H218.073L203.033 323.216V346H188.825V300.688H203.033L218.073 323.856V300.688H232.281V346ZM260.78 346.448C256.513 346.448 252.588 345.445 249.004 343.44C245.463 341.435 242.647 338.661 240.556 335.12C238.465 331.579 237.42 327.589 237.42 323.152C237.42 318.715 238.465 314.725 240.556 311.184C242.647 307.643 245.463 304.891 249.004 302.928C252.588 300.923 256.513 299.92 260.78 299.92C265.047 299.92 268.951 300.923 272.492 302.928C276.033 304.891 278.828 307.643 280.876 311.184C282.967 314.725 284.012 318.715 284.012 323.152C284.012 327.589 282.967 331.579 280.876 335.12C278.828 338.661 276.012 341.435 272.428 343.44C268.887 345.445 265.004 346.448 260.78 346.448ZM260.78 333.2C263.596 333.2 265.772 332.304 267.308 330.512C268.844 328.677 269.612 326.224 269.612 323.152C269.612 320.037 268.844 317.584 267.308 315.792C265.772 313.957 263.596 313.04 260.78 313.04C257.921 313.04 255.724 313.957 254.188 315.792C252.652 317.584 251.884 320.037 251.884 323.152C251.884 326.224 252.652 328.677 254.188 330.512C255.724 332.304 257.921 333.2 260.78 333.2ZM324.722 300.688V311.952H312.69V346H298.482V311.952H286.578V300.688H324.722ZM371.45 300.688V311.952H353.658V318.224H366.458V328.912H353.658V346H339.45V300.688H371.45ZM398.343 346.448C394.076 346.448 390.151 345.445 386.567 343.44C383.025 341.435 380.209 338.661 378.119 335.12C376.028 331.579 374.983 327.589 374.983 323.152C374.983 318.715 376.028 314.725 378.119 311.184C380.209 307.643 383.025 304.891 386.567 302.928C390.151 300.923 394.076 299.92 398.343 299.92C402.609 299.92 406.513 300.923 410.055 302.928C413.596 304.891 416.391 307.643 418.439 311.184C420.529 314.725 421.575 318.715 421.575 323.152C421.575 327.589 420.529 331.579 418.439 335.12C416.391 338.661 413.575 341.435 409.991 343.44C406.449 345.445 402.567 346.448 398.343 346.448ZM398.343 333.2C401.159 333.2 403.335 332.304 404.871 330.512C406.407 328.677 407.175 326.224 407.175 323.152C407.175 320.037 406.407 317.584 404.871 315.792C403.335 313.957 401.159 313.04 398.343 313.04C395.484 313.04 393.287 313.957 391.751 315.792C390.215 317.584 389.447 320.037 389.447 323.152C389.447 326.224 390.215 328.677 391.751 330.512C393.287 332.304 395.484 333.2 398.343 333.2ZM440.588 300.688V326.224C440.588 328.315 441.036 329.979 441.932 331.216C442.871 332.411 444.364 333.008 446.412 333.008C448.46 333.008 449.975 332.411 450.956 331.216C451.937 329.979 452.428 328.315 452.428 326.224V300.688H466.572V326.224C466.572 330.533 465.676 334.224 463.884 337.296C462.092 340.325 459.639 342.608 456.524 344.144C453.409 345.68 449.932 346.448 446.092 346.448C442.252 346.448 438.839 345.68 435.852 344.144C432.908 342.608 430.604 340.325 428.94 337.296C427.276 334.267 426.444 330.576 426.444 326.224V300.688H440.588ZM516.156 346H501.948L486.908 323.216V346H472.7V300.688H486.908L501.948 323.856V300.688H516.156V346ZM541.455 300.688C546.191 300.688 550.33 301.648 553.871 303.568C557.455 305.488 560.207 308.155 562.127 311.568C564.047 314.981 565.007 318.864 565.007 323.216C565.007 327.525 564.047 331.408 562.127 334.864C560.207 338.32 557.455 341.051 553.871 343.056C550.33 345.019 546.191 346 541.455 346H522.575V300.688H541.455ZM540.175 333.328C543.375 333.328 545.914 332.453 547.791 330.704C549.668 328.955 550.607 326.459 550.607 323.216C550.607 319.973 549.668 317.477 547.791 315.728C545.914 313.979 543.375 313.104 540.175 313.104H536.783V333.328H540.175Z" fill="#239AD4"/>
</svg>
