<svg width="1067" height="325" viewBox="0 0 1067 325" fill="none" xmlns="http://www.w3.org/2000/svg">
<path d="M278.447 71.7852C277.727 106.622 276.903 141.459 276.148 176.296C275.963 184.824 270.876 190.407 264.941 195.559C264.566 195.887 264.255 196.06 263.973 196.112C263.42 196.221 262.976 195.847 262.411 195.161C254.454 185.515 243.109 184.242 231.873 183.504C219.577 182.698 207.217 182.341 194.904 182.64C187.384 182.819 181.611 179.978 176.846 174.965C172.092 169.975 168.059 164.3 163.443 158.595C166.63 157.524 169.136 156.78 171.562 155.835C173.383 155.121 175.486 154.268 175.445 151.929C175.411 149.906 173.469 149.065 171.873 148.31C167.632 146.317 163.132 145.107 158.488 144.709C153.924 144.323 150.559 142.468 148.007 138.549C145.788 135.144 142.959 132.136 140.055 128.518C143.288 127.561 146.117 126.818 148.877 125.879C150.911 125.182 153.36 124.3 153.487 121.92C153.619 119.471 151.17 118.55 149.205 117.708C143.731 115.363 137.952 114.107 132.063 113.773C128.382 113.56 125.783 112.183 123.328 109.48C117.434 102.986 111.257 96.7174 102.746 93.5828C100.004 92.5687 100.338 91.3529 101.686 89.924C101.853 89.7511 102.038 89.5725 102.228 89.3881C114.922 77.3225 127.529 65.1589 140.338 53.2201C144.602 49.2501 150.093 48.357 155.832 48.5068C182.804 49.2155 209.781 49.8263 236.753 50.5177C240.959 50.6272 245.223 51.2149 249.02 47.8672C245.396 56.1241 241.685 63.972 241.334 72.9261C241.288 74.1188 239.744 75.2136 239.006 76.4236C236.459 80.6299 237.3 85.8618 240.994 89.0539C244.682 92.2461 250.075 92.2576 253.762 89.0827C257.456 85.8963 258.822 80.1977 255.687 76.5619C252.195 72.5055 252.979 68.8178 254.736 64.7441C255.791 62.2895 256.88 59.8348 258.176 57.5012C262.077 50.4831 263.783 50.1317 270.311 55.0985C275.791 59.2644 278.591 64.9112 278.447 71.7852Z" fill="white"/>
<path d="M247.071 211.288C247.042 212.389 246.616 213.115 246.063 213.691L246.022 213.731C245.469 214.296 244.806 214.716 244.282 215.224C209.059 248.908 173.824 282.575 138.555 316.214C128.04 326.246 116.625 326.015 106.651 315.655C103.476 312.359 100.324 309.04 97.0286 305.566L96.3775 304.88C94.7757 303.192 93.1335 301.458 91.4395 299.677C104.018 297.027 112.868 289.726 120.952 281.296C122.693 279.487 124.559 278.83 127.031 278.663C133.26 278.248 139.494 277.58 145.424 275.459C147.55 274.705 150.379 274.007 150.511 271.34C150.65 268.637 147.924 267.761 145.792 266.92C143.32 265.946 140.751 265.209 137.339 264.074C143.954 258.191 146.397 248.13 157.818 248.447C161.995 248.562 166.293 247.249 170.212 245.405C171.796 244.662 173.646 243.884 173.594 241.7C173.554 239.833 171.923 239.095 170.557 238.266C169.952 237.897 169.284 237.626 168.627 237.35C162.318 234.688 162.306 234.682 166.616 229.496C169.013 226.615 171.289 223.601 173.917 220.945C179.609 215.189 185.994 211.738 194.746 212.124C208.638 212.729 222.571 213.351 236.492 212.527C239.995 212.319 243.475 211.72 247.071 211.288Z" fill="#0E2F56"/>
<path d="M125.697 219.793C125.524 220.485 125.339 221.182 125.068 221.839C114.587 247.243 102.787 271.957 87.0451 295.131L82.9886 290.89C64.8614 271.899 46.907 253.098 28.8432 234.175C27.2932 232.55 25.7432 230.925 24.1875 229.301C24.2048 229.295 24.2163 229.289 24.2336 229.283C34.8818 225.382 42.0209 218.019 48.5146 209.911C53.372 203.85 54.4841 203.498 62.0495 205.573C73.9999 208.857 86.2269 210.153 98.5979 210.321C105.385 210.418 112.173 210.453 118.955 210.724C124.233 210.931 126.958 214.752 125.697 219.793Z" fill="#0E2F56"/>
<path d="M126.081 176.976C124.773 180.681 121.909 181.222 118.411 181.113C102.549 180.617 86.6571 179.597 70.875 182.282C67.5445 182.847 64.1219 183.279 60.9643 184.397C56.2625 186.068 52.9436 184.414 50.3968 180.75C45.1592 173.201 39.161 166.42 31.3938 161.412C29.3944 160.122 29.4635 159.136 30.1434 158.266C30.4719 157.852 30.9386 157.46 31.3823 157.074L31.4399 157.022C31.607 156.878 31.7741 156.734 31.9297 156.584C41.1834 147.67 50.5006 138.825 59.7946 129.952C69.8609 120.341 79.9386 110.741 89.976 101.102C90.4657 100.635 90.9094 100.174 91.3416 99.8398L91.3473 99.834C92.3672 99.0446 93.3237 98.9524 94.5856 101.154C107.481 123.614 118.313 146.979 126.19 171.68C127.216 173.467 127.233 175.23 126.081 176.976Z" fill="#0E2F56"/>
<path d="M328.753 27.285C326.166 32.684 323.175 37.7027 319.833 42.3987C309.796 56.5271 296.601 67.7342 281.706 77.5181C279.972 70.3962 279.989 70.3847 285.146 66.7547C295.039 59.8057 303.717 51.7274 311.063 42.3987C314.29 38.3135 317.252 33.9862 319.948 29.4054C322.501 25.0782 324.621 20.532 325.417 15.5248C326.35 9.60723 323.169 6.18461 317.206 6.65709C313.247 6.974 309.49 8.2474 305.97 9.99329C289.842 17.9852 276.353 28.7601 265.63 42.3987C261.545 47.5845 257.863 53.1909 254.584 59.2065C253.144 61.8455 252.222 64.7841 251.26 67.6478C249.906 71.6754 250.465 75.3688 253.703 78.4054C255.241 80.1859 255.299 82.2832 254.141 84.0752C253.109 85.6771 251.778 84.4094 250.672 83.6661C246.068 81.8684 244.478 78.0827 244.109 73.5653C243.614 67.4807 245.365 61.8282 248.154 56.5848C250.81 51.5833 253.737 46.8585 256.918 42.3987C268.88 25.6313 284.524 12.6841 303.7 3.49952C308.874 1.02186 314.451 -0.401349 320.317 0.0999447C327.335 0.69343 331.743 5.2454 332.141 12.275C332.435 17.5991 331.006 22.5948 328.753 27.285Z" fill="white"/>
<path d="M29.1015 196.348C29.5163 196.659 30.0176 196.872 30.5304 197.068C31.5734 197.465 32.6393 197.794 33.0139 198.785C33.2904 199.517 33.0427 200.335 32.7834 201.072C29.7929 209.658 25.6616 217.851 20.5391 225.371C20.5103 225.417 20.4815 225.457 20.4527 225.503C19.8592 224.748 19.2369 224.017 18.5916 223.308C17.8713 222.495 17.1223 221.706 16.3559 220.928L16.2926 220.865C13.3021 217.834 10.0926 214.993 7.26927 211.801C3.06878 207.053 -0.371132 201.078 0.0322072 194.746C0.228115 191.64 1.35747 188.794 2.50987 185.947C3.61041 183.227 6.10535 181.263 8.15662 179.2C11.8673 175.466 15.6933 171.853 19.623 168.356C20.5219 167.555 21.4323 166.76 22.3426 165.97C22.6941 165.665 23.1551 165.342 23.5815 165.527C23.8408 165.636 23.9906 165.901 24.1231 166.143C27.7013 172.81 30.7033 179.782 33.0888 186.961C33.3941 187.889 33.6765 188.961 33.1694 189.796C32.4319 191 30.6342 190.862 29.4068 191.565C27.7704 192.504 27.5976 195.207 29.1015 196.348Z" fill="#0E2F56"/>
<path d="M398.59 113.228V120.588C401.1 121.028 402.93 121.838 404.07 123.038C405.22 124.238 405.79 125.228 405.79 125.988C405.79 128.058 405.52 130.268 404.97 132.608C404.42 134.958 403.34 138.258 401.7 142.508L388.77 175.238L370.78 131.708C370.34 130.838 369.96 129.778 369.63 128.518C369.3 127.268 369.14 126.258 369.14 125.498C369.14 124.408 369.55 123.428 370.37 122.548C371.18 121.678 373.28 121.028 376.67 120.588V113.228H332V120.588C335.38 121.028 337.64 121.818 338.79 122.958C339.93 124.108 340.83 125.388 341.49 126.808L368.65 187.668V216.788C368.65 218.648 368.48 219.928 368.16 220.638C367.83 221.348 367.18 221.808 366.19 222.028L359.32 223.828V231.028H403.34V223.828L396.63 222.028C395.53 221.808 394.83 221.348 394.5 220.638C394.17 219.928 394.01 218.648 394.01 216.788V188.648L417.57 135.308C419.64 130.728 421.52 127.188 423.21 124.678C424.9 122.168 427.44 120.698 430.82 120.258V113.228H398.59Z" fill="white"/>
<path d="M441.131 178.998V191.428H477.941V178.998H441.131Z" fill="white"/>
<path d="M582.49 113.228H501.17V120.418L507.88 122.218C508.97 122.448 509.68 122.908 510.01 123.618C510.34 124.328 510.5 125.608 510.5 127.458V216.788C510.5 218.648 510.34 219.928 510.01 220.638C509.68 221.348 508.97 221.808 507.88 222.028L501.17 223.828V231.028H545.84V223.668L539.29 222.188C537.77 221.868 536.81 221.348 536.43 220.638C536.05 219.928 535.86 218.648 535.86 216.788V178.838H547.97C548.84 178.838 549.6 178.998 550.26 179.318C550.91 179.648 551.51 180.308 552.06 181.288C552.6 182.268 553.17 183.718 553.77 185.628C554.37 187.538 555.11 190.118 555.98 193.398H564.98V153.638H555.98C555.11 156.908 554.4 159.528 553.86 161.488C553.31 163.458 552.74 164.958 552.14 165.988C551.54 167.028 550.91 167.678 550.26 167.948C549.6 168.228 548.78 168.358 547.8 168.358H535.86V124.348H559.91C562.31 124.348 564.05 124.948 565.15 126.138C566.24 127.328 567.6 129.438 569.24 132.468L575.45 144.148L584.13 143.168L582.49 113.228Z" fill="white"/>
<path d="M636.811 223.008C635.391 222.578 634.411 221.998 633.861 221.288C633.321 220.588 633.041 219.468 633.041 217.938V108.808L601.301 114.368V121.078C605.121 121.078 607.541 121.518 608.581 122.388C609.621 123.258 610.141 124.518 610.141 126.148V217.938C610.141 219.468 609.861 220.588 609.321 221.288C608.771 221.998 607.791 222.578 606.371 223.008L601.631 224.318V231.028H641.551V224.318L636.811 223.008Z" fill="white"/>
<path d="M687.61 114.127C685.48 111.337 682.02 109.947 677.22 109.947C672.86 109.947 669.53 111.337 667.24 114.127C664.95 116.907 663.8 120.097 663.8 123.697C663.8 125.437 664.05 127.157 664.54 128.847C665.03 130.537 665.82 132.037 666.91 133.347C668 134.657 669.39 135.717 671.08 136.537C672.77 137.357 674.82 137.767 677.22 137.767C681.36 137.767 684.66 136.457 687.12 133.837C689.57 131.217 690.8 127.837 690.8 123.697C690.8 120.097 689.73 116.907 687.61 114.127ZM693.58 223.007C692.16 222.577 691.18 221.997 690.64 221.287C690.09 220.587 689.82 219.467 689.82 217.937V148.887L658.07 154.457V161.157C661.89 161.157 664.32 161.597 665.36 162.467C666.39 163.347 666.91 164.597 666.91 166.237V217.937C666.91 219.467 666.64 220.587 666.09 221.287C665.55 221.997 664.56 222.577 663.15 223.007L658.4 224.317V231.027H698.33V224.317L693.58 223.007Z" fill="white"/>
<path d="M800.25 150.687H772.44C770.48 150.147 768.1 149.627 765.32 149.137C762.54 148.647 759.24 148.397 755.42 148.397C751.17 148.397 746.92 148.807 742.66 149.627C738.41 150.447 734.56 151.947 731.13 154.127C727.69 156.307 724.91 159.337 722.78 163.207C720.66 167.077 719.59 172.127 719.59 178.337C719.59 185.327 721.09 190.837 724.09 194.867C727.09 198.907 731.21 202.017 736.45 204.197C733.06 205.607 730.31 206.997 728.18 208.367C726.06 209.727 724.42 211.147 723.27 212.617C722.13 214.087 721.36 215.567 720.98 217.037C720.6 218.507 720.41 220.067 720.41 221.697C720.41 223.557 720.95 225.627 722.05 227.917C723.14 230.207 725.26 232.007 728.43 233.317C724.93 235.497 722.1 238.467 719.92 242.237C717.74 245.997 716.65 249.457 716.65 252.627C716.65 256.767 717.87 260.147 720.33 262.767C722.78 265.387 725.81 267.457 729.41 268.987C733.01 270.507 736.85 271.547 740.94 272.087C745.03 272.637 748.77 272.907 752.15 272.907C760.22 272.907 767.18 271.867 773.01 269.797C778.84 267.727 783.65 265.087 787.41 261.867C791.17 258.647 793.95 255.077 795.76 251.147C797.55 247.227 798.45 243.347 798.45 239.537C798.34 235.937 797.8 232.957 796.82 230.617C795.84 228.277 794.23 226.367 791.99 224.887C789.75 223.417 786.81 222.267 783.16 221.457C779.5 220.637 774.95 219.957 769.5 219.407C763.17 218.757 758.18 218.207 754.52 217.767C750.87 217.337 748.11 216.877 746.26 216.377C744.41 215.887 743.24 215.317 742.74 214.667C742.25 214.007 742.01 213.247 742.01 212.377C742.01 211.067 742.55 209.977 743.64 209.097C744.73 208.227 746.2 207.577 748.06 207.137C749.26 207.357 750.62 207.497 752.15 207.547C753.68 207.607 754.93 207.627 755.91 207.627C760.6 207.627 765.08 207.117 769.33 206.087C773.58 205.057 777.32 203.377 780.54 201.047C783.75 198.717 786.29 195.687 788.15 191.957C790 188.217 790.93 183.697 790.93 178.387C790.93 175.677 790.52 172.677 789.7 169.367C788.88 166.067 787.44 163.547 785.36 161.817H800.25V150.687ZM745.2 238.307C749.29 239.127 754.61 239.857 761.15 240.517C765.84 240.947 769.6 241.437 772.44 241.977C775.28 242.517 777.4 243.167 778.82 243.927C780.24 244.677 781.16 245.567 781.6 246.597C782.04 247.627 782.26 248.897 782.26 250.407C782.26 252.137 781.66 253.577 780.46 254.707C779.25 255.847 777.62 256.757 775.55 257.467C773.47 258.167 771.08 258.647 768.35 258.927C765.62 259.197 762.79 259.327 759.84 259.327C755.81 259.327 752.12 258.977 748.8 258.277C745.47 257.567 742.61 256.597 740.21 255.357C737.81 254.117 735.93 252.597 734.56 250.817C733.2 249.027 732.52 247.057 732.52 244.897C732.52 244.347 732.73 243.137 733.17 241.237C733.61 239.337 734.59 237.627 736.12 236.097C738.08 236.747 741.11 237.487 745.2 238.307ZM764.75 192.857C763 196.057 759.78 197.647 755.1 197.647C750.73 197.647 747.65 195.867 745.85 192.297C744.05 188.727 743.15 183.637 743.15 177.037C743.15 170.767 744.11 166.087 746.02 163.007C747.92 159.927 751.17 158.377 755.75 158.377C759.46 158.377 762.32 159.757 764.34 162.517C766.36 165.277 767.37 170.387 767.37 177.857C767.37 184.667 766.49 189.677 764.75 192.857Z" fill="white"/>
<path d="M899.569 223.008C898.149 222.578 897.169 221.998 896.619 221.288C896.079 220.588 895.809 219.468 895.809 217.938V171.638C895.809 168.358 895.399 165.308 894.579 162.468C893.759 159.638 892.419 157.178 890.569 155.108C888.709 153.038 886.289 151.408 883.289 150.198C880.289 148.998 876.549 148.398 872.079 148.398C867.609 148.398 863.329 149.548 859.239 151.838C855.149 154.128 851.569 157.668 848.519 162.468V108.808L816.779 114.368V121.078C820.599 121.078 823.019 121.518 824.059 122.388C825.099 123.258 825.609 124.518 825.609 126.148V217.938C825.609 219.468 825.339 220.588 824.799 221.288C824.249 221.998 823.269 222.578 821.849 223.008L817.109 224.318V231.028H857.029V224.348L852.279 223.048C850.869 222.618 849.879 222.048 849.339 221.338C848.789 220.638 848.519 219.518 848.519 217.998V169.978C850.369 168.458 852.469 167.318 854.819 166.558C857.159 165.798 859.429 165.418 861.609 165.418C866.409 165.418 869.489 166.478 870.849 168.588C872.219 170.708 872.899 173.938 872.899 178.278V217.998C872.899 219.518 872.629 220.638 872.079 221.338C871.529 222.048 870.549 222.618 869.139 223.048L864.389 224.348V231.028H904.309V224.318L899.569 223.008Z" fill="white"/>
<path d="M974.5 216.137C972.32 217.337 969.97 218.097 967.46 218.427C964.95 218.757 963.05 218.917 961.74 218.917C958.68 218.917 956.59 218.077 955.44 216.377C954.29 214.677 953.72 211.857 953.72 207.927V160.837H973.52V150.857H953.72V125.987H943.09C940.8 134.117 937.69 140.377 933.76 144.767C929.83 149.167 925.2 152.287 919.85 154.127V160.837H930.82V212.487C930.82 218.837 932.1 223.677 934.66 227.007C937.22 230.337 941.94 232.007 948.81 232.007C953.29 232.007 957.59 231.567 961.74 230.697C965.88 229.827 970.47 227.917 975.48 224.967L974.5 216.137Z" fill="white"/>
<path d="M1059.66 196.097C1058.41 193.537 1056.5 191.267 1053.93 189.307C1051.37 187.337 1048.13 185.537 1044.2 183.907C1040.27 182.267 1035.69 180.527 1030.46 178.667C1025.87 177.047 1022.71 175.507 1020.97 174.047C1019.22 172.587 1018.35 170.557 1018.35 167.957C1018.35 167.097 1018.48 166.087 1018.76 164.957C1019.03 163.817 1019.55 162.767 1020.31 161.787C1021.07 160.817 1022.19 160.007 1023.67 159.357C1025.14 158.707 1027.02 158.377 1029.31 158.377C1031.82 158.377 1033.78 158.517 1035.2 158.787C1036.62 159.057 1037.93 159.517 1039.13 160.157V172.617H1052.71C1054.02 171.527 1055.1 169.697 1055.98 167.137C1056.85 164.577 1057.29 162.307 1057.29 160.347C1057.29 158.817 1057.21 157.397 1057.04 156.087C1056.88 154.777 1056.52 153.527 1055.98 152.327C1051.51 151.017 1047.14 150.037 1042.89 149.377C1038.64 148.727 1033.51 148.397 1027.51 148.397C1023.26 148.397 1019.25 148.887 1015.48 149.877C1011.72 150.857 1008.42 152.387 1005.59 154.457C1002.75 156.527 1000.52 159.117 998.88 162.227C997.24 165.337 996.42 169.067 996.42 173.437C996.42 176.377 996.78 179.027 997.49 181.367C998.2 183.717 999.5 185.867 1001.41 187.827C1003.32 189.797 1005.94 191.647 1009.27 193.397C1012.59 195.137 1016.88 196.937 1022.11 198.797C1025.38 199.987 1028.08 201.047 1030.21 201.967C1032.34 202.887 1034.03 203.837 1035.28 204.807C1036.53 205.787 1037.41 206.867 1037.9 208.057C1038.39 209.247 1038.64 210.657 1038.64 212.287C1038.64 216.077 1037.49 218.867 1035.2 220.657C1032.91 222.447 1030.02 223.337 1026.53 223.337C1023.69 223.337 1021.35 223.147 1019.49 222.767C1017.64 222.387 1016 221.827 1014.59 221.067V206.807H999.53C998.11 208.667 997.16 210.687 996.67 212.867C996.18 215.047 995.93 216.787 995.93 218.097C995.93 221.157 996.59 223.987 997.9 226.607C999.64 227.807 1001.71 228.817 1004.11 229.637C1006.51 230.457 1008.97 231.127 1011.48 231.677C1013.98 232.227 1016.47 232.637 1018.92 232.907C1021.38 233.177 1023.64 233.317 1025.71 233.317C1030.73 233.317 1035.45 232.767 1039.86 231.677C1044.28 230.587 1048.07 228.897 1051.23 226.607C1054.4 224.317 1056.91 221.457 1058.76 218.017C1060.62 214.587 1061.54 210.517 1061.54 205.827C1061.54 201.897 1060.91 198.657 1059.66 196.097Z" fill="white"/>
<path d="M711.679 260.878H359.419C358.049 260.878 356.939 259.768 356.939 258.398C356.939 257.028 358.049 255.918 359.419 255.918H711.679C713.049 255.918 714.159 257.028 714.159 258.398C714.159 259.768 713.049 260.878 711.679 260.878Z" fill="white"/>
<path d="M1059.22 260.878H800.449C799.079 260.878 797.969 259.768 797.969 258.398C797.969 257.028 799.079 255.918 800.449 255.918H1059.23C1060.6 255.918 1061.71 257.028 1061.71 258.398C1061.7 259.768 1060.59 260.878 1059.22 260.878Z" fill="white"/>
<path d="M360 286.598V289.328L362.07 289.838C362.07 289.838 362.12 289.978 362.12 290.458V310.788C362.12 311.268 362.07 311.378 361.98 311.378L360 311.908V314.638H371.4V311.848L369.42 311.408C369.27 311.378 369.22 311.358 369.18 311.348C369.16 311.288 369.13 311.138 369.13 310.788V302.768H371.26C371.36 302.768 371.45 302.788 371.5 302.808C371.5 302.808 371.56 302.838 371.65 303.008C371.75 303.178 371.86 303.478 371.99 303.878C372.12 304.308 372.29 304.888 372.48 305.618L372.6 306.078H375.74V295.798H372.6L372.48 296.258C372.28 296.998 372.12 297.588 372 298.038C371.86 298.528 371.75 298.788 371.67 298.918C371.59 299.058 371.54 299.098 371.55 299.098C371.5 299.118 371.4 299.148 371.23 299.148H369.13V290.378H373.98C374.23 290.378 374.56 290.418 374.71 290.588C374.86 290.748 375.12 291.108 375.55 291.898L377.16 294.928L380.13 294.588L379.69 286.608H360V286.598Z" fill="white"/>
<path d="M396.129 311.428C396.129 311.428 396.069 311.338 396.069 311.038V285.468L387.609 286.948V289.618H388.229C389.259 289.618 389.479 289.768 389.489 289.768C389.549 289.818 389.619 289.908 389.619 290.148V311.028C389.619 311.328 389.559 311.418 389.559 311.418C389.559 311.418 389.489 311.498 389.219 311.588L387.679 312.008V314.628H397.999V312.008L396.479 311.588C396.199 311.508 396.139 311.428 396.129 311.428Z" fill="white"/>
<path d="M413.889 311.428C413.889 311.428 413.829 311.338 413.829 311.038V294.588L405.369 296.078V298.748H405.989C407.019 298.748 407.239 298.898 407.249 298.898C407.309 298.948 407.379 299.038 407.379 299.278V311.038C407.379 311.338 407.319 311.428 407.319 311.428C407.319 311.428 407.249 311.508 406.979 311.598L405.439 312.018V314.638H415.759V312.018L414.239 311.598C413.959 311.508 413.889 311.428 413.889 311.428Z" fill="white"/>
<path d="M407.52 292.188C407.82 292.558 408.21 292.848 408.68 293.078C409.15 293.308 409.71 293.418 410.34 293.418C411.46 293.418 412.37 293.048 413.05 292.328C413.72 291.618 414.05 290.698 414.05 289.598C414.05 288.638 413.76 287.778 413.2 287.038C412.6 286.248 411.63 285.848 410.34 285.848C409.16 285.848 408.23 286.248 407.59 287.018C406.98 287.758 406.66 288.628 406.66 289.588C406.66 290.038 406.72 290.498 406.85 290.928C407 291.408 407.22 291.828 407.52 292.188Z" fill="white"/>
<path d="M443.799 295.118H436.929C436.479 294.998 435.949 294.878 435.329 294.768C433.939 294.528 431.879 294.518 429.959 294.888C428.919 295.088 427.959 295.458 427.109 295.998C426.239 296.548 425.539 297.318 425.009 298.288C424.469 299.258 424.199 300.518 424.199 302.028C424.199 303.748 424.589 305.138 425.349 306.158C425.849 306.828 426.489 307.408 427.239 307.878C426.949 308.028 426.679 308.188 426.439 308.338C425.899 308.688 425.469 309.058 425.169 309.438C424.859 309.838 424.649 310.258 424.539 310.678C424.439 311.058 424.389 311.468 424.389 311.888C424.389 312.418 424.529 312.968 424.819 313.568C425.009 313.968 425.309 314.318 425.699 314.608C425.179 315.068 424.729 315.618 424.359 316.248C423.809 317.198 423.529 318.098 423.529 318.928C423.529 320.028 423.869 320.948 424.539 321.658C425.149 322.318 425.919 322.838 426.819 323.218C427.679 323.588 428.619 323.838 429.599 323.968C430.559 324.098 431.449 324.158 432.229 324.158C434.129 324.158 435.799 323.908 437.179 323.418C438.579 322.928 439.739 322.278 440.659 321.498C441.579 320.708 442.269 319.818 442.709 318.848C443.159 317.878 443.389 316.898 443.389 315.948V315.928C443.359 315.028 443.219 314.288 442.969 313.678C442.689 313.028 442.249 312.498 441.639 312.098C441.069 311.728 440.319 311.428 439.419 311.228C438.569 311.038 437.499 310.878 436.239 310.748C434.809 310.608 433.669 310.478 432.849 310.388C432.049 310.288 431.449 310.188 431.049 310.078C430.669 309.978 430.569 309.898 430.549 309.768C430.549 309.678 430.569 309.598 430.679 309.508C430.839 309.388 431.049 309.288 431.329 309.208C431.589 309.258 431.889 309.278 432.209 309.288C432.569 309.308 432.859 309.308 433.089 309.308C434.189 309.308 435.269 309.188 436.289 308.948C437.329 308.688 438.259 308.268 439.049 307.698C439.869 307.108 440.509 306.338 440.979 305.398C441.439 304.468 441.669 303.338 441.669 302.038C441.669 301.368 441.569 300.628 441.379 299.838C441.289 299.488 441.179 299.178 441.029 298.888H443.799V295.118ZM434.219 316.788C435.249 316.888 436.099 316.998 436.729 317.108C437.449 317.248 437.819 317.398 438.009 317.498C438.199 317.598 438.319 317.708 438.359 317.798C438.429 317.948 438.459 318.168 438.459 318.428C438.459 318.648 438.389 318.808 438.239 318.948C438.039 319.148 437.739 319.308 437.349 319.438C436.929 319.588 436.429 319.688 435.849 319.738C434.439 319.888 432.829 319.868 431.599 319.608C430.899 319.458 430.289 319.248 429.799 318.998C429.339 318.758 428.979 318.468 428.719 318.138C428.499 317.838 428.389 317.518 428.389 317.168C428.389 317.058 428.439 316.828 428.519 316.478C428.569 316.258 428.659 316.068 428.789 315.878C429.229 315.998 429.799 316.138 430.529 316.278C431.479 316.468 432.719 316.638 434.219 316.788ZM434.549 305.028C434.369 305.358 434.009 305.798 432.899 305.798C432.149 305.798 431.659 305.518 431.349 304.928C430.989 304.198 430.799 303.128 430.799 301.728C430.799 300.428 430.989 299.468 431.359 298.868C431.679 298.358 432.229 298.108 433.049 298.108C433.699 298.108 434.159 298.328 434.499 298.798C434.759 299.148 435.069 299.978 435.069 301.918C435.069 303.348 434.899 304.398 434.549 305.028Z" fill="white"/>
<path d="M470.43 311.428C470.43 311.428 470.37 311.338 470.37 311.038V300.508C470.37 299.708 470.27 298.948 470.07 298.248C469.86 297.518 469.51 296.868 469.02 296.328C468.53 295.788 467.9 295.358 467.13 295.048C465.59 294.438 463.14 294.338 461.13 295.458C460.59 295.758 460.08 296.148 459.62 296.628V285.468L451.16 286.948V289.618H451.78C452.81 289.618 453.03 289.768 453.04 289.768C453.1 289.818 453.17 289.908 453.17 290.148V311.028C453.17 311.328 453.11 311.418 453.11 311.418C453.11 311.418 453.04 311.498 452.77 311.588L451.23 312.008V314.628H461.55V312.018L460.03 311.598C459.74 311.508 459.67 311.428 459.67 311.428C459.67 311.428 459.61 311.338 459.61 311.038V300.418C459.91 300.208 460.25 300.038 460.62 299.918C461.98 299.478 463.28 299.698 463.55 300.128C463.72 300.388 463.92 300.918 463.92 301.998V311.038C463.92 311.338 463.86 311.418 463.86 311.418C463.86 311.418 463.79 311.498 463.52 311.588L461.98 312.008V314.618H472.3V311.998L470.78 311.578C470.5 311.508 470.43 311.428 470.43 311.428Z" fill="white"/>
<path d="M492.199 310.088C491.769 310.328 491.309 310.478 490.819 310.538C489.379 310.728 488.899 310.658 488.679 310.348C488.569 310.188 488.389 309.768 488.389 308.768V298.678H492.899V295.168H488.389V289.508H484.879L484.749 289.958C484.259 291.708 483.589 293.058 482.759 293.988C481.939 294.908 480.969 295.558 479.859 295.948L479.439 296.098V298.688H481.929V309.818C481.929 311.398 482.269 312.638 482.929 313.498C483.629 314.408 484.879 314.878 486.639 314.878C487.699 314.878 488.729 314.778 489.709 314.568C490.709 314.358 491.829 313.898 493.019 313.198L493.369 312.998L492.999 309.668L492.199 310.088Z" fill="white"/>
<path d="M520.87 286.598L520.43 294.578L523.21 294.928L525.01 291.638C525.26 291.188 525.49 290.838 525.71 290.588C525.76 290.538 525.9 290.368 526.36 290.368H528.68V310.788C528.68 311.268 528.63 311.408 528.58 311.378L526.55 311.908V314.648H537.8V311.918L535.73 311.408C535.73 311.408 535.67 311.268 535.67 310.798V290.378H537.99C538.45 290.378 538.6 290.538 538.64 290.588C538.86 290.838 539.09 291.188 539.34 291.638L541.14 294.928L543.92 294.578L543.48 286.598H520.87Z" fill="white"/>
<path d="M559.95 311.428C559.95 311.428 559.89 311.338 559.89 311.038V294.588L551.43 296.078V298.748H552.05C553.08 298.748 553.3 298.898 553.31 298.898C553.37 298.948 553.44 299.038 553.44 299.278V311.038C553.44 311.338 553.38 311.428 553.38 311.428C553.38 311.428 553.31 311.508 553.04 311.598L551.5 312.018V314.638H561.82V312.018L560.3 311.598C560.02 311.508 559.95 311.428 559.95 311.428Z" fill="white"/>
<path d="M553.59 292.188C553.89 292.558 554.28 292.848 554.75 293.078C555.22 293.308 555.78 293.418 556.41 293.418C557.53 293.418 558.44 293.048 559.12 292.328C559.79 291.618 560.12 290.698 560.12 289.598C560.12 288.638 559.83 287.778 559.27 287.038C558.67 286.248 557.7 285.848 556.41 285.848C555.23 285.848 554.3 286.248 553.66 287.018C553.05 287.758 552.73 288.628 552.73 289.588C552.73 290.038 552.79 290.498 552.92 290.928C553.06 291.408 553.28 291.828 553.59 292.188Z" fill="white"/>
<path d="M585.3 309.308C584.42 309.638 583.6 309.898 582.85 310.068C581.66 310.338 580.22 310.468 579.03 310.088C578.6 309.948 578.23 309.698 577.91 309.318C577.57 308.928 577.3 308.388 577.11 307.698C576.9 306.978 576.8 306.028 576.8 304.878C576.8 303.638 576.84 302.558 576.93 301.648C577.01 300.778 577.17 300.068 577.39 299.518C577.59 299.028 577.86 298.668 578.19 298.438C578.52 298.208 578.97 298.098 579.53 298.098C579.97 298.098 580.32 298.128 580.57 298.188C580.7 298.218 580.83 298.268 580.95 298.318V302.748H585.51L585.7 302.518C585.97 302.198 586.21 301.748 586.45 301.168C586.69 300.578 586.81 299.958 586.81 299.338C586.81 298.978 586.77 298.558 586.69 298.098C586.6 297.558 586.4 297.108 586.08 296.708C585.23 295.828 584.16 295.238 582.92 294.968C581.75 294.708 580.48 294.578 579.16 294.578C576.34 294.578 574.1 295.438 572.49 297.138C570.89 298.828 570.09 301.558 570.09 305.248C570.09 308.398 570.86 310.848 572.37 312.548C573.9 314.268 576.06 315.138 578.79 315.138C579.28 315.138 579.83 315.108 580.44 315.048C581.06 314.978 581.71 314.848 582.37 314.648C583.04 314.448 583.72 314.188 584.41 313.868C585.12 313.538 585.82 313.108 586.5 312.588L586.83 312.338L585.95 309.038L585.3 309.308Z" fill="white"/>
<path d="M614.189 311.518C614.129 311.498 614.019 311.438 613.869 311.308C613.719 311.178 613.559 310.998 613.379 310.778C613.179 310.528 612.939 310.188 612.639 309.758L607.889 302.838L609.379 301.228C610.019 300.538 610.529 299.998 610.929 299.608C611.299 299.238 611.639 298.948 611.929 298.748C612.209 298.558 612.489 298.408 612.769 298.298C613.079 298.178 613.469 298.048 613.929 297.898L614.359 297.758V295.158H605.449V297.838L605.969 297.918C606.239 297.958 606.479 298.028 606.639 298.088C606.639 298.088 606.679 298.148 606.679 298.348C606.679 298.378 606.669 298.508 606.579 298.818C606.509 299.058 606.359 299.378 606.129 299.768C605.899 300.168 605.569 300.648 605.139 301.198C604.739 301.708 604.229 302.278 603.619 302.898H603.159V285.468L594.699 286.948V289.618H595.319C596.349 289.618 596.569 289.768 596.579 289.768C596.639 289.818 596.709 289.908 596.709 290.148V311.028C596.709 311.328 596.649 311.418 596.649 311.418C596.649 311.418 596.579 311.498 596.309 311.588L594.769 312.008V314.628H605.089V312.008L603.569 311.588C603.279 311.498 603.219 311.418 603.209 311.418C603.209 311.418 603.149 311.328 603.149 311.028V306.068L608.399 314.618H615.919V312.008L614.659 311.648C614.489 311.618 614.339 311.578 614.189 311.518Z" fill="white"/>
<path d="M638.261 309.128C637.191 309.628 636.281 309.958 635.561 310.088C633.901 310.408 632.071 310.388 631.171 309.868C630.671 309.578 630.311 309.198 630.071 308.718C629.801 308.198 629.631 307.598 629.551 306.938C629.491 306.428 629.451 305.918 629.441 305.408H639.521L639.581 304.858C639.611 304.658 639.631 304.428 639.661 304.178C639.681 303.918 639.701 303.658 639.721 303.408L639.761 302.748C639.771 302.528 639.771 302.368 639.771 302.258C639.771 301.238 639.651 300.268 639.401 299.348C639.141 298.398 638.691 297.568 638.071 296.868C637.461 296.158 636.621 295.598 635.581 295.198C634.571 294.798 633.301 294.598 631.821 294.598C630.501 294.598 629.261 294.788 628.161 295.168C627.031 295.558 626.041 296.198 625.231 297.058C624.421 297.918 623.791 299.068 623.361 300.468C622.931 301.838 622.711 303.518 622.711 305.448C622.711 307.348 622.951 308.948 623.431 310.178C623.901 311.428 624.561 312.448 625.371 313.188C626.181 313.928 627.151 314.458 628.241 314.748C629.281 315.018 630.391 315.158 631.521 315.158C632.101 315.158 632.721 315.108 633.381 315.018C634.031 314.928 634.721 314.778 635.421 314.568C636.121 314.368 636.821 314.088 637.511 313.748C638.211 313.408 638.881 312.968 639.491 312.438L639.771 312.188L638.941 308.808L638.261 309.128ZM630.031 298.978C630.331 298.378 630.771 298.108 631.451 298.108C631.931 298.108 632.291 298.198 632.531 298.368C632.791 298.568 632.981 298.828 633.131 299.168C633.291 299.548 633.391 299.998 633.441 300.498C633.481 301.018 633.511 301.538 633.511 302.078H629.451C629.531 300.658 629.721 299.618 630.031 298.978Z" fill="white"/>
<path d="M659.879 310.088C659.449 310.328 658.989 310.478 658.499 310.538C657.059 310.728 656.569 310.658 656.359 310.348C656.249 310.188 656.069 309.768 656.069 308.768V298.678H660.579V295.168H656.069V289.508H652.559L652.429 289.958C651.939 291.708 651.269 293.058 650.439 293.988C649.619 294.908 648.649 295.558 647.539 295.948L647.119 296.098V298.688H649.609V309.818C649.609 311.398 649.949 312.638 650.609 313.498C651.309 314.408 652.559 314.878 654.319 314.878C655.379 314.878 656.409 314.778 657.389 314.568C658.389 314.358 659.509 313.898 660.699 313.198L661.049 312.998L660.679 309.668L659.879 310.088Z" fill="white"/>
<path d="M683.469 304.027C682.849 303.557 682.059 303.107 681.119 302.717C680.219 302.337 679.159 301.937 677.959 301.517C676.759 301.087 676.219 300.767 675.989 300.577C675.739 300.367 675.619 300.077 675.619 299.667C675.619 299.517 675.649 299.337 675.689 299.127C675.729 298.957 675.809 298.797 675.929 298.647C676.039 298.507 676.219 298.387 676.459 298.277C676.719 298.167 677.059 298.107 677.489 298.107C678.149 298.107 678.519 298.147 678.709 298.187C678.849 298.217 678.979 298.247 679.099 298.297V301.347H683.029L683.199 301.207C683.589 300.887 683.899 300.387 684.139 299.687C684.359 299.037 684.469 298.467 684.469 297.947C684.469 297.567 684.449 297.227 684.409 296.907C684.369 296.547 684.269 296.197 684.119 295.867L683.999 295.607L683.729 295.527C682.699 295.227 681.669 294.997 680.669 294.837C679.669 294.687 678.459 294.607 677.079 294.607C676.059 294.607 675.089 294.727 674.189 294.957C673.259 295.207 672.429 295.587 671.729 296.097C671.009 296.617 670.429 297.287 670.019 298.077C669.599 298.867 669.389 299.827 669.389 300.917C669.389 301.637 669.479 302.307 669.659 302.897C669.849 303.527 670.199 304.107 670.699 304.627C671.179 305.117 671.839 305.587 672.639 306.007C673.419 306.417 674.429 306.837 675.639 307.267C676.369 307.537 676.969 307.767 677.449 307.977C677.879 308.167 678.229 308.357 678.469 308.547C678.669 308.697 678.799 308.857 678.869 309.027C678.949 309.227 678.989 309.467 678.989 309.757C678.989 310.427 678.809 310.887 678.449 311.167C678.039 311.487 677.519 311.647 676.859 311.647C676.259 311.647 675.759 311.607 675.379 311.527C675.149 311.477 674.949 311.417 674.759 311.347V307.877H670.409L670.219 308.117C669.849 308.607 669.589 309.147 669.459 309.737C669.339 310.287 669.279 310.717 669.279 311.067C669.279 311.857 669.449 312.597 669.789 313.277L669.989 313.507C670.429 313.817 670.959 314.067 671.559 314.277C672.119 314.467 672.709 314.637 673.299 314.757C673.889 314.887 674.479 314.987 675.059 315.047C675.639 315.107 676.179 315.137 676.669 315.137C677.859 315.137 678.989 315.007 680.039 314.747C681.119 314.477 682.059 314.057 682.839 313.487C683.629 312.917 684.269 312.187 684.739 311.327C685.209 310.457 685.449 309.427 685.449 308.257C685.449 307.267 685.279 306.437 684.959 305.767C684.629 305.127 684.129 304.537 683.469 304.027Z" fill="white"/>
<path d="M740.949 308.608L740.399 309.198C740.079 309.528 739.769 309.758 739.469 309.888C738.859 310.148 738.389 310.108 737.979 309.988C737.799 309.938 737.589 309.828 737.359 309.668C737.109 309.478 736.819 309.218 736.499 308.868C736.229 308.588 735.929 308.238 735.589 307.818C735.879 307.398 736.209 306.927 736.589 306.407C737.099 305.687 737.579 304.878 738.009 303.988C738.229 303.558 738.409 303.208 738.559 302.938C738.669 302.738 738.789 302.587 738.929 302.477C739.059 302.377 739.219 302.298 739.429 302.248C739.709 302.178 740.099 302.107 740.599 302.037L741.129 301.958V299.138H731.889V301.798L732.319 301.938C732.699 302.058 732.989 302.158 733.209 302.248C733.419 302.338 733.519 302.408 733.559 302.448C733.579 302.478 733.609 302.517 733.629 302.597C733.659 302.747 733.679 302.937 733.679 303.157C733.679 303.317 733.639 303.528 733.569 303.758C733.489 304.038 733.389 304.308 733.279 304.588C733.179 304.818 733.069 305.038 732.959 305.248L727.969 299.537C728.629 299.267 729.249 298.988 729.819 298.678C730.669 298.228 731.409 297.688 732.019 297.088C732.639 296.468 733.129 295.738 733.489 294.928C733.839 294.098 734.019 293.158 734.019 292.118C734.019 290.868 733.719 289.837 733.139 289.037C732.579 288.267 731.869 287.657 731.029 287.217C730.209 286.787 729.309 286.498 728.349 286.338C726.079 285.968 724.069 286.048 722.299 286.578C721.259 286.898 720.329 287.358 719.549 287.948C718.759 288.548 718.129 289.278 717.679 290.138C717.229 291.008 716.999 291.998 716.999 293.058C716.999 293.648 717.039 294.217 717.119 294.727C717.199 295.257 717.359 295.817 717.609 296.407C717.839 296.977 718.179 297.587 718.609 298.217C718.899 298.657 719.259 299.138 719.669 299.648C719.039 299.888 718.439 300.148 717.879 300.428C717.039 300.858 716.299 301.397 715.669 302.037C715.029 302.697 714.519 303.498 714.159 304.428C713.799 305.348 713.609 306.488 713.609 307.798C713.609 308.888 713.839 309.898 714.289 310.808C714.729 311.708 715.339 312.498 716.099 313.148C716.849 313.788 717.739 314.297 718.749 314.657C720.879 315.407 723.599 315.248 725.379 314.938C726.339 314.768 727.149 314.548 727.849 314.248C728.559 313.958 729.179 313.617 729.689 313.227C730.039 312.977 730.369 312.708 730.709 312.418C731.159 312.908 731.589 313.318 731.979 313.638C732.499 314.058 732.989 314.388 733.459 314.628C733.929 314.858 734.409 315.018 734.889 315.088C735.329 315.158 735.789 315.188 736.269 315.188C736.749 315.188 737.219 315.128 737.679 314.998C738.139 314.868 738.629 314.658 739.119 314.368C739.589 314.078 740.099 313.708 740.619 313.258C741.129 312.818 741.679 312.288 742.299 311.668L742.639 311.318L740.949 308.608ZM723.599 291.488C723.669 291.208 723.789 290.948 723.979 290.708C724.169 290.468 724.429 290.278 724.769 290.118C725.109 289.958 725.559 289.878 726.109 289.878C726.809 289.878 727.349 290.077 727.749 290.477C728.149 290.877 728.349 291.418 728.349 292.128C728.349 292.628 728.309 293.088 728.219 293.498C728.129 293.898 727.979 294.288 727.759 294.668C727.549 295.048 727.239 295.427 726.849 295.787C726.549 296.067 726.169 296.378 725.729 296.698C725.399 296.308 725.099 295.937 724.849 295.597C724.519 295.167 724.249 294.768 724.039 294.388C723.839 294.038 723.699 293.698 723.619 293.398C723.529 293.088 723.489 292.758 723.489 292.428C723.489 292.128 723.529 291.808 723.599 291.488ZM726.619 310.308C725.339 310.688 724.199 310.668 723.169 310.418C722.699 310.298 722.299 310.108 721.929 309.808C721.579 309.528 721.289 309.137 721.069 308.657C720.849 308.167 720.729 307.517 720.729 306.717C720.729 306.347 720.759 305.948 720.819 305.498C720.879 305.078 720.979 304.658 721.119 304.248C721.269 303.848 721.469 303.468 721.729 303.108C721.879 302.908 722.049 302.718 722.239 302.548L728.069 309.717C727.579 309.977 727.099 310.178 726.619 310.308Z" fill="white"/>
<path d="M785.19 289.328L787.25 289.838C787.25 289.838 787.31 289.978 787.31 290.458V298.248H778.87V290.458C778.87 289.978 778.93 289.828 779 289.868L781.03 289.338V286.598H769.74V289.338L771.8 289.838C771.8 289.838 771.86 289.978 771.86 290.458V310.788C771.86 311.288 771.79 311.398 771.77 311.378L769.74 311.908V314.648H781V311.918L778.94 311.408C778.94 311.408 778.88 311.268 778.88 310.788V302.138H787.32V310.788C787.32 311.238 787.27 311.368 787.19 311.378L785.2 311.908V314.638H796.45V311.908L794.39 311.408C794.39 311.398 794.33 311.268 794.33 310.788V290.458C794.33 289.988 794.4 289.828 794.47 289.868L796.46 289.338V286.608H785.21V289.328H785.19Z" fill="white"/>
<path d="M823.17 299.738C822.74 298.508 822.11 297.498 821.3 296.728C820.48 295.978 819.47 295.418 818.29 295.088C816.08 294.458 813.03 294.408 810.65 295.088C809.47 295.418 808.43 296.008 807.57 296.838C806.7 297.658 806.03 298.758 805.55 300.108C805.08 301.438 804.84 303.108 804.84 305.078C804.84 308.268 805.59 310.758 807.06 312.498C808.55 314.258 810.95 315.158 814.18 315.158C815.63 315.158 816.96 314.948 818.12 314.548C819.32 314.128 820.35 313.448 821.2 312.538C822.04 311.638 822.69 310.468 823.14 309.068C823.58 307.698 823.8 306.028 823.8 304.108C823.8 302.408 823.59 300.938 823.17 299.738ZM816.93 308.008C816.82 308.938 816.65 309.688 816.41 310.268C816.2 310.768 815.94 311.128 815.61 311.328C815.28 311.538 814.83 311.648 814.29 311.648C813.34 311.648 812.7 311.208 812.29 310.268C811.8 309.198 811.56 307.268 811.56 304.558C811.56 303.398 811.59 302.358 811.65 301.488C811.7 300.678 811.84 299.988 812.05 299.458C812.24 298.988 812.5 298.658 812.84 298.438C813.2 298.218 813.72 298.108 814.36 298.108C815.01 298.108 815.51 298.218 815.85 298.438C816.19 298.648 816.44 298.978 816.61 299.428C816.81 299.948 816.94 300.628 817 301.418C817.06 302.278 817.09 303.288 817.09 304.408C817.09 305.838 817.04 307.048 816.93 308.008Z" fill="white"/>
<path d="M844.1 310.088C843.67 310.328 843.21 310.478 842.72 310.538C841.27 310.728 840.79 310.658 840.58 310.348C840.47 310.188 840.29 309.768 840.29 308.768V298.678H844.8V295.168H840.29V289.508H836.78L836.65 289.958C836.16 291.708 835.49 293.058 834.66 293.988C833.84 294.908 832.87 295.558 831.76 295.948L831.34 296.098V298.688H833.83V309.818C833.83 311.398 834.17 312.638 834.83 313.498C835.53 314.408 836.78 314.878 838.54 314.878C839.6 314.878 840.63 314.778 841.61 314.568C842.61 314.358 843.73 313.898 844.92 313.198L845.27 312.998L844.9 309.668L844.1 310.088Z" fill="white"/>
<path d="M868.739 309.128C867.669 309.628 866.769 309.958 866.039 310.088C864.379 310.408 862.549 310.388 861.649 309.868C861.159 309.578 860.799 309.198 860.549 308.718C860.289 308.198 860.119 307.598 860.039 306.938C859.979 306.428 859.939 305.918 859.919 305.408H869.999L870.069 304.858C870.089 304.658 870.119 304.428 870.139 304.178C870.169 303.918 870.189 303.658 870.199 303.408L870.239 302.748C870.249 302.528 870.259 302.368 870.259 302.258C870.259 301.238 870.129 300.268 869.879 299.348C869.619 298.398 869.179 297.568 868.559 296.868C867.939 296.158 867.099 295.598 866.069 295.198C865.049 294.798 863.789 294.598 862.309 294.598C860.979 294.598 859.749 294.788 858.639 295.168C857.509 295.558 856.519 296.198 855.709 297.058C854.909 297.918 854.279 299.068 853.839 300.468C853.409 301.838 853.199 303.518 853.199 305.448C853.199 307.348 853.439 308.948 853.909 310.178C854.389 311.428 855.039 312.448 855.859 313.188C856.669 313.928 857.629 314.458 858.719 314.748C859.769 315.018 860.869 315.158 862.009 315.158C862.579 315.158 863.199 315.108 863.859 315.018C864.509 314.928 865.199 314.778 865.909 314.568C866.599 314.368 867.309 314.088 867.989 313.748C868.689 313.408 869.359 312.968 869.969 312.438L870.259 312.188L869.429 308.808L868.739 309.128ZM860.519 298.978C860.809 298.378 861.249 298.108 861.929 298.108C862.409 298.108 862.779 298.198 863.009 298.368C863.269 298.568 863.469 298.828 863.609 299.168C863.779 299.548 863.879 299.998 863.919 300.498C863.969 301.018 863.989 301.538 863.989 302.078H859.929C860.009 300.658 860.209 299.618 860.519 298.978Z" fill="white"/>
<path d="M886.62 311.428C886.62 311.428 886.56 311.338 886.56 311.038V285.468L878.1 286.948V289.618H878.72C879.75 289.618 879.97 289.768 879.98 289.768C880.04 289.818 880.11 289.908 880.11 290.148V311.028C880.11 311.328 880.05 311.418 880.05 311.418C880.05 311.418 879.98 311.498 879.71 311.588L878.17 312.008V314.628H888.49V312.008L886.97 311.588C886.69 311.508 886.62 311.428 886.62 311.428Z" fill="white"/>
<path d="M940.88 293.458C940.28 291.588 939.4 290.088 938.28 288.998C937.15 287.918 935.78 287.148 934.21 286.728C931.13 285.898 927.05 285.908 924 286.748C922.42 287.178 921.04 287.958 919.9 289.058C918.77 290.148 917.89 291.658 917.29 293.518C916.7 295.348 916.4 297.698 916.4 300.498C916.4 303.228 916.68 305.548 917.23 307.398C917.79 309.278 918.62 310.828 919.7 311.978C920.78 313.148 922.15 313.988 923.75 314.478C925.29 314.948 927.09 315.188 929.08 315.188C931.01 315.188 932.76 314.928 934.31 314.418C935.89 313.888 937.25 313.018 938.36 311.828C939.46 310.648 940.32 309.108 940.9 307.238C941.47 305.398 941.77 303.128 941.77 300.498C941.77 297.668 941.47 295.298 940.88 293.458ZM933.19 308.878C932.41 310.588 931.07 311.418 929.08 311.418C927.96 311.418 927.05 311.208 926.37 310.788C925.7 310.378 925.17 309.738 924.79 308.888C924.38 307.968 924.1 306.808 923.95 305.428C923.79 304.008 923.71 302.308 923.71 300.358C923.71 298.198 923.83 296.408 924.07 295.028C924.31 293.678 924.66 292.608 925.13 291.838C925.57 291.118 926.11 290.608 926.74 290.328C927.42 290.028 928.24 289.878 929.19 289.878C930.05 289.878 930.81 290.028 931.45 290.328C932.06 290.598 932.59 291.108 933.02 291.828C933.47 292.598 933.83 293.678 934.08 295.028C934.33 296.418 934.46 298.208 934.46 300.358C934.46 304.168 934.03 307.038 933.19 308.878Z" fill="white"/>
<path d="M963.57 294.768C962.42 294.488 961.35 294.478 960.38 294.868C959.9 295.068 959.45 295.348 959.06 295.678C958.84 295.858 958.64 296.058 958.45 296.268V294.478L949.99 295.958V298.628H950.61C951.64 298.628 951.86 298.778 951.87 298.778C951.93 298.828 952 298.928 952 299.158V311.028C952 311.328 951.94 311.418 951.94 311.418C951.94 311.418 951.87 311.498 951.6 311.588L950.06 312.008V314.628H960.57V312.008L959.05 311.588C958.82 311.518 958.65 311.428 958.53 311.318C958.5 311.288 958.45 311.168 958.45 310.918V300.328C958.8 299.968 959.04 299.828 959.19 299.778C960.01 299.488 960.77 299.618 961.65 299.898C962.21 300.078 962.86 300.428 963.57 300.958L964.3 301.498L965.8 296.018L965.48 295.768C964.8 295.248 964.16 294.908 963.57 294.768Z" fill="white"/>
<path d="M992.47 311.888C992.07 311.788 991.75 311.698 991.5 311.618C991.25 311.538 991.14 311.468 991.05 311.358C991.04 311.258 991.01 311.088 991.01 310.778V285.468L982.55 286.948V289.618H983.17C984.2 289.618 984.42 289.768 984.43 289.768C984.49 289.828 984.56 289.918 984.56 290.148V294.928C984.33 294.878 984.09 294.828 983.83 294.778C983.23 294.658 982.56 294.598 981.83 294.598C980.55 294.598 979.35 294.778 978.26 295.148C977.14 295.528 976.16 296.148 975.33 296.998C974.51 297.848 973.87 298.958 973.42 300.308C972.98 301.628 972.76 303.248 972.76 305.118C972.76 307.038 972.97 308.648 973.39 309.928C973.81 311.218 974.38 312.268 975.08 313.038C975.8 313.818 976.63 314.378 977.55 314.688C978.44 314.998 979.37 315.158 980.3 315.158C981.44 315.158 982.5 314.908 983.45 314.418C983.97 314.148 984.45 313.818 984.87 313.428L984.98 314.638H992.95V311.998L992.47 311.888ZM984.56 309.818C984.31 309.988 984.02 310.148 983.68 310.298C983.27 310.478 982.82 310.568 982.31 310.568C981.3 310.568 980.62 310.198 980.2 309.408C979.72 308.518 979.47 307.018 979.47 304.958C979.47 303.598 979.56 302.458 979.72 301.578C979.88 300.738 980.11 300.058 980.41 299.568C980.68 299.128 980.99 298.828 981.38 298.648C981.79 298.458 982.28 298.368 982.83 298.368C983.17 298.368 983.54 298.398 983.92 298.468C984.14 298.508 984.36 298.558 984.56 298.608V309.818Z" fill="white"/>
<path d="M1016.74 309.128C1015.67 309.628 1014.76 309.958 1014.04 310.088C1012.38 310.408 1010.55 310.388 1009.65 309.868C1009.16 309.578 1008.8 309.198 1008.55 308.718C1008.29 308.198 1008.12 307.598 1008.04 306.938C1007.97 306.428 1007.94 305.918 1007.92 305.408H1018L1018.07 304.858C1018.09 304.658 1018.12 304.428 1018.14 304.178C1018.17 303.918 1018.19 303.658 1018.2 303.408L1018.24 302.748C1018.25 302.528 1018.26 302.368 1018.26 302.258C1018.26 301.238 1018.13 300.268 1017.88 299.348C1017.62 298.398 1017.18 297.568 1016.56 296.868C1015.94 296.158 1015.1 295.598 1014.07 295.198C1013.05 294.798 1011.79 294.598 1010.31 294.598C1008.98 294.598 1007.75 294.788 1006.64 295.168C1005.51 295.558 1004.52 296.198 1003.71 297.058C1002.9 297.918 1002.27 299.068 1001.84 300.468C1001.41 301.838 1001.2 303.518 1001.2 305.448C1001.2 307.348 1001.44 308.948 1001.91 310.178C1002.39 311.428 1003.04 312.448 1003.85 313.188C1004.67 313.928 1005.63 314.458 1006.72 314.748C1007.77 315.018 1008.87 315.158 1010.01 315.158C1010.58 315.158 1011.2 315.108 1011.86 315.018C1012.51 314.928 1013.2 314.778 1013.91 314.568C1014.6 314.368 1015.31 314.088 1015.99 313.748C1016.69 313.408 1017.36 312.968 1017.97 312.438L1018.26 312.188L1017.43 308.808L1016.74 309.128ZM1008.52 298.978C1008.81 298.378 1009.25 298.108 1009.93 298.108C1010.41 298.108 1010.78 298.198 1011.01 298.368C1011.27 298.568 1011.47 298.828 1011.61 299.168C1011.77 299.548 1011.88 299.998 1011.92 300.498C1011.97 301.018 1011.99 301.538 1011.99 302.078H1007.93C1008.01 300.658 1008.21 299.618 1008.52 298.978Z" fill="white"/>
<path d="M1039.69 294.768C1038.54 294.488 1037.47 294.478 1036.5 294.868C1036.02 295.068 1035.57 295.348 1035.18 295.678C1034.96 295.858 1034.76 296.058 1034.57 296.268V294.478L1026.11 295.958V298.628H1026.73C1027.76 298.628 1027.98 298.778 1027.99 298.778C1028.05 298.828 1028.12 298.928 1028.12 299.158V311.028C1028.12 311.328 1028.06 311.418 1028.06 311.418C1028.06 311.418 1027.99 311.498 1027.72 311.588L1026.18 312.008V314.628H1036.69V312.008L1035.17 311.588C1034.94 311.518 1034.77 311.428 1034.65 311.318C1034.62 311.288 1034.57 311.168 1034.57 310.918V300.328C1034.92 299.968 1035.16 299.828 1035.31 299.778C1036.14 299.488 1036.89 299.618 1037.77 299.898C1038.33 300.078 1038.98 300.428 1039.69 300.958L1040.42 301.498L1041.92 296.018L1041.6 295.768C1040.92 295.248 1040.28 294.908 1039.69 294.768Z" fill="white"/>
<path d="M1065.6 305.798C1065.27 305.128 1064.77 304.538 1064.12 304.038C1063.5 303.568 1062.71 303.118 1061.77 302.728C1060.87 302.348 1059.81 301.948 1058.61 301.528C1057.41 301.098 1056.88 300.778 1056.64 300.588C1056.39 300.378 1056.27 300.088 1056.27 299.678C1056.27 299.528 1056.29 299.348 1056.35 299.138C1056.39 298.968 1056.47 298.808 1056.59 298.658C1056.7 298.518 1056.88 298.398 1057.12 298.288C1057.38 298.178 1057.72 298.118 1058.15 298.118C1058.8 298.118 1059.18 298.158 1059.37 298.198C1059.51 298.228 1059.64 298.258 1059.76 298.308V301.358H1063.69L1063.86 301.218C1064.25 300.898 1064.56 300.398 1064.8 299.698C1065.02 299.048 1065.13 298.478 1065.13 297.958C1065.13 297.578 1065.11 297.238 1065.07 296.918C1065.03 296.558 1064.93 296.208 1064.78 295.878L1064.66 295.618L1064.39 295.538C1063.36 295.238 1062.33 295.008 1061.33 294.848C1060.33 294.698 1059.12 294.618 1057.74 294.618C1056.72 294.618 1055.75 294.738 1054.85 294.968C1053.92 295.218 1053.09 295.598 1052.39 296.108C1051.67 296.628 1051.09 297.298 1050.68 298.088C1050.26 298.878 1050.05 299.838 1050.05 300.928C1050.05 301.648 1050.14 302.318 1050.32 302.908C1050.51 303.538 1050.86 304.118 1051.36 304.638C1051.84 305.128 1052.49 305.598 1053.3 306.018C1054.08 306.428 1055.09 306.848 1056.3 307.278C1057.03 307.548 1057.63 307.778 1058.11 307.988C1058.54 308.178 1058.89 308.368 1059.13 308.558C1059.33 308.708 1059.46 308.868 1059.53 309.038C1059.61 309.238 1059.65 309.478 1059.65 309.768C1059.65 310.438 1059.47 310.898 1059.11 311.178C1058.7 311.498 1058.18 311.658 1057.52 311.658C1056.92 311.658 1056.42 311.618 1056.04 311.538C1055.81 311.488 1055.61 311.428 1055.42 311.358V307.888H1051.07L1050.89 308.128C1050.52 308.618 1050.26 309.158 1050.12 309.748C1050 310.298 1049.94 310.728 1049.94 311.078C1049.94 311.868 1050.11 312.608 1050.45 313.288L1050.65 313.518C1051.09 313.828 1051.62 314.078 1052.22 314.288C1052.78 314.478 1053.37 314.648 1053.96 314.768C1054.55 314.898 1055.14 314.998 1055.72 315.058C1056.3 315.118 1056.84 315.148 1057.33 315.148C1058.52 315.148 1059.65 315.018 1060.7 314.758C1061.78 314.488 1062.72 314.068 1063.5 313.498C1064.29 312.928 1064.93 312.198 1065.4 311.338C1065.87 310.468 1066.11 309.438 1066.11 308.268C1066.09 307.298 1065.93 306.458 1065.6 305.798Z" fill="white"/>
</svg>
