<svg width="1234" height="562" viewBox="0 0 1234 562" fill="none" xmlns="http://www.w3.org/2000/svg">
<path d="M469.124 95.6196C457.784 86.9996 454.834 87.6196 448.064 99.7896C445.814 103.84 443.924 108.1 442.084 112.36C439.044 119.43 437.674 125.83 443.744 132.87C449.174 139.18 446.814 149.07 440.404 154.59C434.004 160.1 424.654 160.08 418.244 154.54C411.844 149 410.374 139.92 414.794 132.62C416.064 130.52 418.754 128.62 418.834 126.55C419.444 111 425.884 97.3896 432.174 83.0596C425.584 88.8696 418.194 87.8396 410.884 87.6496C364.074 86.4496 317.254 85.3996 270.444 84.1596C260.484 83.8996 250.954 85.4496 243.564 92.3396C221.324 113.06 199.454 134.17 177.414 155.1C174.364 158 172.964 160.4 178.324 162.38C193.094 167.82 203.804 178.7 214.044 189.97C218.304 194.66 222.814 197.05 229.194 197.42C239.424 198.01 249.454 200.19 258.944 204.25C262.354 205.71 266.604 207.31 266.384 211.56C266.164 215.69 261.914 217.22 258.384 218.43C253.594 220.07 248.684 221.36 243.064 223.02C248.104 229.29 253.014 234.51 256.864 240.42C261.294 247.22 267.134 250.44 275.054 251.12C283.114 251.81 290.924 253.91 298.284 257.37C301.054 258.68 304.424 260.14 304.484 263.65C304.554 267.7 300.904 269.18 297.744 270.42C293.534 272.07 289.184 273.36 283.664 275.21C291.674 285.11 298.674 294.96 306.914 303.62C315.184 312.32 325.214 317.25 338.264 316.93C359.634 316.41 381.084 317.04 402.414 318.43C421.914 319.71 441.614 321.92 455.414 338.65C456.894 340.44 457.884 341.01 459.804 339.34C470.094 330.4 478.934 320.71 479.254 305.91C480.554 245.45 481.984 184.99 483.244 124.53C483.494 112.66 478.634 102.85 469.124 95.6196Z" fill="#239AD4"/>
<path d="M337.985 368.14C322.795 367.48 311.715 373.47 301.825 383.46C297.265 388.07 293.325 393.3 289.165 398.3C281.675 407.3 281.705 407.31 292.655 411.93C293.795 412.41 294.955 412.88 296.005 413.52C298.365 414.96 301.205 416.24 301.275 419.49C301.355 423.27 298.145 424.62 295.405 425.91C288.605 429.11 281.145 431.39 273.895 431.19C254.065 430.64 249.825 448.11 238.355 458.32C244.275 460.29 248.725 461.57 253.025 463.26C256.725 464.72 261.445 466.24 261.215 470.93C260.985 475.55 256.075 476.76 252.385 478.08C242.095 481.76 231.275 482.91 220.465 483.64C216.175 483.93 212.925 485.06 209.915 488.21C195.885 502.83 180.525 515.51 158.695 520.11C168.115 530.01 176.555 538.97 185.095 547.84C202.415 565.82 222.215 566.22 240.465 548.81C301.665 490.43 362.825 432 423.945 373.54C425.815 371.75 428.705 370.52 428.785 366.72C422.545 367.47 416.505 368.51 410.425 368.87C386.275 370.27 362.095 369.19 337.985 368.14Z" fill="#0E2F56"/>
<path d="M218.145 381.45C220.335 372.7 215.605 366.07 206.445 365.71C194.675 365.25 182.885 365.18 171.105 365.02C149.645 364.72 128.425 362.48 107.675 356.78C94.5349 353.17 92.6148 353.79 84.1848 364.31C72.8948 378.4 60.4848 391.2 41.9648 397.96C78.3848 436.11 114.485 473.91 151.055 512.22C178.385 472 198.855 429.1 217.045 385.01C217.525 383.86 217.845 382.65 218.145 381.45Z" fill="#0E2F56"/>
<path d="M54.4853 280.13C67.9653 288.83 78.3653 300.589 87.4653 313.689C91.8853 320.049 97.6453 322.919 105.805 320.029C111.285 318.089 117.225 317.339 123.005 316.359C150.395 311.699 177.965 313.469 205.495 314.329C211.565 314.519 216.545 313.579 218.805 307.149C220.805 304.129 220.775 301.059 218.995 297.959C205.335 255.089 186.525 214.54 164.145 175.57C161.025 170.13 158.985 172.749 156.145 175.479C138.725 192.209 121.235 208.869 103.755 225.549C87.6253 240.949 71.4553 256.299 55.3953 271.769C52.9953 274.079 48.6353 276.36 54.4853 280.13Z" fill="#0E2F56"/>
<path d="M576.435 21.31C575.745 9.10996 568.095 1.20996 555.925 0.169956C545.735 -0.690044 536.065 1.77996 527.085 6.07996C484.955 26.25 452.645 56.91 430.685 98.2C425.845 107.3 422.805 117.12 423.665 127.68C424.305 135.51 427.065 142.09 435.055 145.2C436.975 146.49 439.285 148.69 441.075 145.91C443.085 142.8 442.975 139.16 440.305 136.06C434.685 130.79 433.715 124.39 436.065 117.4C437.735 112.43 439.335 107.32 441.835 102.75C462.485 64.84 492.385 36.48 531.015 17.34C537.135 14.31 543.645 12.09 550.515 11.55C560.865 10.73 566.385 16.67 564.765 26.94C563.395 35.63 559.705 43.52 555.285 51.03C539.935 77.08 519.585 98.5 494.885 115.85C485.935 122.14 485.895 122.17 488.905 134.53C523.365 111.91 552.555 84.88 570.565 47.35C574.465 39.22 576.945 30.55 576.435 21.31Z" fill="#239AD4"/>
<path d="M52.9844 342.01C52.0944 341.67 51.2244 341.3 50.5044 340.76C47.8944 338.78 48.1944 334.09 51.0344 332.46C53.1644 331.24 56.2844 331.49 57.5644 329.39C58.4444 327.94 57.9544 326.08 57.4244 324.47C53.2844 312.01 48.0744 299.91 41.8744 288.34C41.6444 287.91 41.3844 287.46 40.9344 287.26C40.1944 286.94 39.3944 287.5 38.7844 288.03C30.2944 295.37 22.0844 303.03 14.1644 310.99C10.6044 314.57 6.26439 317.99 4.36439 322.7C2.36439 327.65 0.394381 332.59 0.0543813 337.98C-0.635619 348.96 5.33438 359.33 12.6244 367.58C19.9144 375.83 28.6844 382.72 35.5044 391.36C44.4644 378.25 51.6844 363.95 56.9044 348.96C57.3544 347.68 57.7844 346.27 57.3044 345C56.6444 343.28 54.7944 342.7 52.9844 342.01Z" fill="#0E2F56"/>
<path d="M561.01 371.8C561.01 373.66 561.17 374.94 561.5 375.65C561.83 376.36 562.53 376.82 563.63 377.04L570.34 378.84V386.04H526.32V378.84L533.19 377.04C534.17 376.82 534.83 376.36 535.15 375.65C535.48 374.94 535.64 373.66 535.64 371.8V342.68L508.49 281.81C507.83 280.39 506.93 279.11 505.79 277.97C504.64 276.82 502.38 276.03 499 275.6V268.24H543.67V275.6C540.29 276.04 538.19 276.69 537.37 277.56C536.55 278.43 536.14 279.42 536.14 280.5C536.14 281.27 536.3 282.27 536.63 283.53C536.96 284.79 537.34 285.85 537.78 286.72L555.78 330.24L568.71 297.52C570.35 293.26 571.43 289.97 571.98 287.62C572.53 285.28 572.8 283.07 572.8 280.99C572.8 280.23 572.23 279.25 571.08 278.05C569.93 276.85 568.11 276.03 565.6 275.6V268.24H597.83V275.28C594.45 275.72 591.91 277.19 590.22 279.7C588.53 282.21 586.65 285.75 584.58 290.33L561.02 343.67V371.8H561.01Z" fill="white"/>
<path d="M644.941 346.44H608.131V334H644.941V346.44Z" fill="white"/>
<path d="M714.8 323.37C715.78 323.37 716.6 323.231 717.25 322.961C717.9 322.691 718.53 322.03 719.13 321C719.73 319.97 720.3 318.47 720.85 316.5C721.4 314.54 722.1 311.921 722.98 308.651H731.98V348.41H722.98C722.11 345.14 721.37 342.551 720.77 340.641C720.17 338.731 719.6 337.29 719.05 336.3C718.5 335.32 717.91 334.661 717.25 334.331C716.6 334.001 715.83 333.841 714.96 333.841H702.85V371.8C702.85 373.66 703.04 374.941 703.42 375.651C703.8 376.361 704.75 376.881 706.28 377.201L712.83 378.67V386.031H668.16V378.831L674.87 377.031C675.96 376.811 676.67 376.351 677 375.641C677.33 374.931 677.49 373.65 677.49 371.79V282.461C677.49 280.611 677.33 279.33 677 278.62C676.67 277.91 675.96 277.45 674.87 277.23L668.16 275.43V268.23H749.48L751.12 298.17L742.45 299.151L736.23 287.47C734.59 284.44 733.23 282.331 732.14 281.141C731.05 279.951 729.3 279.36 726.9 279.36H702.85V323.37H714.8Z" fill="white"/>
<path d="M777.141 281.16C777.141 279.52 776.621 278.27 775.591 277.4C774.551 276.53 772.121 276.09 768.311 276.09V269.38L800.051 263.82V372.95C800.051 374.48 800.321 375.6 800.871 376.3C801.411 377.01 802.401 377.58 803.811 378.02L808.561 379.33V386.04H768.641V379.33L773.381 378.02C774.801 377.58 775.781 377.01 776.331 376.3C776.871 375.59 777.151 374.48 777.151 372.95V281.16H777.141Z" fill="white"/>
<path d="M856.82 372.94C856.82 374.47 857.09 375.59 857.64 376.29C858.18 377 859.17 377.57 860.58 378.01L865.33 379.32V386.03H825.4V379.32L830.14 378.01C831.56 377.57 832.54 377 833.09 376.29C833.63 375.58 833.91 374.47 833.91 372.94V321.24C833.91 319.6 833.39 318.35 832.36 317.48C831.32 316.61 828.89 316.17 825.08 316.17V309.46L856.82 303.9V372.94ZM857.8 278.7C857.8 282.85 856.57 286.22 854.12 288.84C851.67 291.46 848.37 292.77 844.22 292.77C841.82 292.77 839.77 292.36 838.08 291.54C836.39 290.72 835 289.66 833.91 288.35C832.82 287.04 832.03 285.54 831.54 283.85C831.05 282.16 830.8 280.44 830.8 278.7C830.8 275.1 831.95 271.91 834.24 269.13C836.53 266.35 839.86 264.96 844.22 264.96C849.02 264.96 852.48 266.35 854.61 269.13C856.73 271.91 857.8 275.1 857.8 278.7Z" fill="white"/>
<path d="M965.451 394.54C965.451 398.36 964.551 402.23 962.751 406.16C960.951 410.09 958.171 413.66 954.401 416.88C950.641 420.1 945.841 422.74 940.001 424.82C934.161 426.89 927.211 427.93 919.141 427.93C915.761 427.93 912.021 427.66 907.931 427.11C903.841 426.56 900.001 425.53 896.401 424C892.801 422.47 889.771 420.4 887.321 417.78C884.871 415.16 883.641 411.78 883.641 407.64C883.641 404.48 884.731 401.01 886.911 397.25C889.091 393.49 891.921 390.51 895.421 388.33C892.261 387.02 890.131 385.22 889.041 382.93C887.951 380.64 887.401 378.57 887.401 376.71C887.401 375.07 887.591 373.52 887.971 372.05C888.351 370.58 889.111 369.1 890.261 367.63C891.401 366.16 893.041 364.74 895.171 363.37C897.301 362.01 900.051 360.62 903.431 359.2C898.191 357.02 894.081 353.91 891.081 349.87C888.081 345.84 886.581 340.33 886.581 333.34C886.581 327.12 887.641 322.08 889.771 318.21C891.901 314.34 894.681 311.31 898.111 309.13C901.551 306.95 905.391 305.45 909.651 304.63C913.911 303.81 918.161 303.4 922.411 303.4C926.231 303.4 929.531 303.65 932.311 304.14C935.091 304.63 937.461 305.15 939.431 305.69H967.241V316.82H952.351C954.421 318.56 955.871 321.07 956.691 324.38C957.511 327.68 957.921 330.69 957.921 333.4C957.921 338.71 956.991 343.23 955.141 346.97C953.281 350.71 950.751 353.74 947.531 356.07C944.311 358.4 940.571 360.08 936.321 361.11C932.071 362.14 927.591 362.65 922.901 362.65C921.921 362.65 920.661 362.63 919.141 362.57C917.611 362.52 916.251 362.38 915.051 362.16C913.191 362.6 911.721 363.25 910.631 364.12C909.541 364.99 908.991 366.08 908.991 367.39C908.991 368.26 909.231 369.03 909.731 369.68C910.221 370.33 911.391 370.91 913.251 371.4C915.101 371.89 917.851 372.36 921.511 372.79C925.161 373.23 930.151 373.77 936.481 374.43C941.931 374.98 946.481 375.66 950.141 376.48C953.791 377.3 956.741 378.45 958.981 379.92C961.211 381.39 962.821 383.3 963.801 385.65C964.801 387.97 965.341 390.94 965.451 394.54ZM949.261 405.41C949.261 403.9 949.041 402.63 948.611 401.6C948.171 400.57 947.241 399.68 945.831 398.92C944.411 398.16 942.281 397.51 939.451 396.97C936.611 396.43 932.851 395.94 928.161 395.51C921.621 394.86 916.301 394.12 912.211 393.3C908.121 392.48 905.091 391.75 903.131 391.09C901.601 392.62 900.621 394.33 900.181 396.23C899.741 398.13 899.531 399.35 899.531 399.89C899.531 402.05 900.211 404.03 901.581 405.81C902.941 407.59 904.821 409.11 907.221 410.35C909.621 411.59 912.481 412.56 915.811 413.27C919.131 413.97 922.821 414.32 926.851 414.32C929.791 414.32 932.631 414.18 935.361 413.92C938.091 413.65 940.491 413.16 942.561 412.46C944.631 411.75 946.271 410.84 947.471 409.7C948.661 408.58 949.261 407.15 949.261 405.41ZM934.371 332.86C934.371 325.4 933.361 320.29 931.341 317.53C929.321 314.77 926.461 313.39 922.751 313.39C918.171 313.39 914.921 314.93 913.021 318.01C911.111 321.09 910.161 325.77 910.161 332.04C910.161 338.64 911.061 343.73 912.861 347.3C914.661 350.87 917.741 352.65 922.101 352.65C926.791 352.65 930.011 351.06 931.751 347.86C933.491 344.68 934.371 339.68 934.371 332.86Z" fill="white"/>
<path d="M1062.81 372.94C1062.81 374.47 1063.08 375.59 1063.63 376.29C1064.18 377 1065.16 377.57 1066.58 378.01L1071.32 379.32V386.03H1031.4V379.36L1036.14 378.06C1037.56 377.62 1038.54 377.05 1039.08 376.35C1039.63 375.64 1039.9 374.53 1039.9 373.01V333.29C1039.9 328.95 1039.22 325.72 1037.85 323.6C1036.49 321.48 1033.4 320.43 1028.6 320.43C1026.42 320.43 1024.16 320.81 1021.81 321.57C1019.46 322.33 1017.37 323.47 1015.51 324.99V373.01C1015.51 374.53 1015.78 375.64 1016.33 376.35C1016.87 377.06 1017.86 377.62 1019.27 378.06L1024.02 379.36V386.03H984.099V379.32L988.839 378.01C990.259 377.57 991.239 377 991.789 376.29C992.329 375.58 992.609 374.47 992.609 372.94V281.15C992.609 279.51 992.089 278.26 991.059 277.39C990.019 276.52 987.589 276.08 983.779 276.08V269.37L1015.52 263.81V317.47C1018.57 312.67 1022.15 309.13 1026.24 306.84C1030.33 304.55 1034.61 303.4 1039.08 303.4C1043.55 303.4 1047.29 304 1050.29 305.2C1053.29 306.4 1055.71 308.04 1057.57 310.11C1059.42 312.18 1060.76 314.64 1061.58 317.47C1062.4 320.31 1062.81 323.36 1062.81 326.63V372.94V372.94Z" fill="white"/>
<path d="M1142.48 379.98C1137.46 382.92 1132.88 384.83 1128.73 385.71C1124.58 386.58 1120.28 387.02 1115.81 387.02C1108.94 387.02 1104.22 385.35 1101.66 382.02C1099.1 378.69 1097.81 373.85 1097.81 367.5V315.84H1086.85V309.13C1092.19 307.29 1096.83 304.17 1100.76 299.78C1104.69 295.39 1107.8 289.13 1110.09 280.99H1120.72V305.86H1140.52V315.84H1120.72V362.93C1120.72 366.87 1121.29 369.68 1122.44 371.38C1123.59 373.08 1125.68 373.92 1128.74 373.92C1130.05 373.92 1131.96 373.76 1134.47 373.43C1136.98 373.1 1139.32 372.34 1141.51 371.14L1142.48 379.98Z" fill="white"/>
<path d="M1193.53 378.34C1197.02 378.34 1199.91 377.45 1202.2 375.66C1204.49 373.87 1205.63 371.08 1205.63 367.29C1205.63 365.67 1205.39 364.26 1204.9 363.07C1204.41 361.88 1203.53 360.8 1202.28 359.82C1201.02 358.84 1199.34 357.9 1197.21 356.97C1195.08 356.05 1192.38 354.99 1189.11 353.8C1183.87 351.95 1179.59 350.15 1176.27 348.4C1172.94 346.66 1170.32 344.8 1168.42 342.84C1166.51 340.88 1165.2 338.73 1164.49 336.38C1163.78 334.04 1163.43 331.39 1163.43 328.45C1163.43 324.09 1164.25 320.35 1165.88 317.24C1167.52 314.13 1169.75 311.54 1172.59 309.47C1175.42 307.4 1178.72 305.87 1182.49 304.89C1186.25 303.91 1190.26 303.42 1194.52 303.42C1200.52 303.42 1205.64 303.75 1209.9 304.4C1214.15 305.05 1218.52 306.04 1222.99 307.35C1223.54 308.55 1223.89 309.8 1224.05 311.11C1224.21 312.42 1224.29 313.84 1224.29 315.37C1224.29 317.33 1223.85 319.6 1222.98 322.16C1222.11 324.72 1221.02 326.55 1219.71 327.64H1206.13V315.19C1204.93 314.54 1203.62 314.08 1202.2 313.81C1200.78 313.54 1198.82 313.41 1196.31 313.41C1194.02 313.41 1192.14 313.73 1190.67 314.38C1189.2 315.03 1188.08 315.84 1187.32 316.82C1186.55 317.79 1186.04 318.85 1185.76 319.98C1185.49 321.11 1185.35 322.12 1185.35 322.98C1185.35 325.58 1186.22 327.61 1187.97 329.07C1189.71 330.53 1192.88 332.08 1197.46 333.69C1202.69 335.55 1207.28 337.29 1211.2 338.93C1215.13 340.57 1218.37 342.37 1220.93 344.33C1223.49 346.29 1225.4 348.56 1226.66 351.12C1227.91 353.68 1228.54 356.93 1228.54 360.85C1228.54 365.54 1227.61 369.6 1225.76 373.04C1223.9 376.47 1221.4 379.34 1218.23 381.63C1215.07 383.92 1211.28 385.61 1206.86 386.7C1202.44 387.79 1197.72 388.34 1192.71 388.34C1190.64 388.34 1188.37 388.2 1185.92 387.93C1183.47 387.66 1180.98 387.25 1178.48 386.7C1175.97 386.15 1173.51 385.47 1171.12 384.65C1168.72 383.83 1166.65 382.83 1164.9 381.62C1163.59 379 1162.94 376.17 1162.94 373.11C1162.94 371.8 1163.19 370.06 1163.68 367.88C1164.17 365.7 1165.12 363.68 1166.54 361.83H1181.59V376.09C1183.01 376.85 1184.64 377.41 1186.5 377.79C1188.35 378.15 1190.69 378.34 1193.53 378.34Z" fill="white"/>
<path d="M878.679 415.88H526.419C525.049 415.88 523.939 414.77 523.939 413.4C523.939 412.03 525.049 410.92 526.419 410.92H878.679C880.049 410.92 881.159 412.03 881.159 413.4C881.159 414.77 880.049 415.88 878.679 415.88Z" fill="white"/>
<path d="M1226.22 415.88H967.449C966.079 415.88 964.969 414.77 964.969 413.4C964.969 412.03 966.079 410.92 967.449 410.92H1226.23C1227.6 410.92 1228.71 412.03 1228.71 413.4C1228.71 414.77 1227.59 415.88 1226.22 415.88Z" fill="white"/>
<path d="M527 441.6V444.33L529.07 444.84C529.07 444.84 529.12 444.98 529.12 445.46V465.79C529.12 466.27 529.07 466.38 528.98 466.38L527 466.91V469.64H538.4V466.85L536.42 466.41C536.27 466.38 536.22 466.36 536.18 466.35C536.16 466.29 536.13 466.14 536.13 465.79V457.77H538.26C538.36 457.77 538.45 457.79 538.5 457.81C538.5 457.81 538.56 457.84 538.65 458.01C538.75 458.18 538.86 458.48 538.99 458.88C539.12 459.31 539.29 459.89 539.48 460.62L539.6 461.08H542.74V450.8H539.6L539.48 451.26C539.28 452 539.12 452.59 539 453.04C538.86 453.53 538.75 453.79 538.67 453.92C538.59 454.06 538.54 454.1 538.55 454.1C538.5 454.12 538.4 454.15 538.23 454.15H536.13V445.38H540.98C541.23 445.38 541.56 445.42 541.71 445.59C541.86 445.75 542.12 446.11 542.55 446.9L544.16 449.93L547.13 449.59L546.69 441.61H527V441.6Z" fill="white"/>
<path d="M563.129 466.43C563.129 466.43 563.069 466.34 563.069 466.04V440.47L554.609 441.95V444.62H555.229C556.259 444.62 556.479 444.77 556.489 444.77C556.549 444.82 556.619 444.91 556.619 445.15V466.03C556.619 466.33 556.559 466.42 556.559 466.42C556.559 466.42 556.489 466.5 556.219 466.59L554.679 467.01V469.63H564.999V467.01L563.479 466.59C563.199 466.51 563.139 466.43 563.129 466.43Z" fill="white"/>
<path d="M580.889 466.43C580.889 466.43 580.829 466.34 580.829 466.04V449.59L572.369 451.08V453.75H572.989C574.019 453.75 574.239 453.9 574.249 453.9C574.309 453.95 574.379 454.04 574.379 454.28V466.04C574.379 466.34 574.319 466.43 574.319 466.43C574.319 466.43 574.249 466.51 573.979 466.6L572.439 467.02V469.64H582.759V467.02L581.239 466.6C580.959 466.51 580.889 466.43 580.889 466.43Z" fill="white"/>
<path d="M574.52 447.19C574.82 447.56 575.21 447.85 575.68 448.08C576.15 448.31 576.71 448.42 577.34 448.42C578.46 448.42 579.37 448.05 580.05 447.33C580.72 446.62 581.05 445.7 581.05 444.6C581.05 443.64 580.76 442.78 580.2 442.04C579.6 441.25 578.63 440.85 577.34 440.85C576.16 440.85 575.23 441.25 574.59 442.02C573.98 442.76 573.66 443.63 573.66 444.59C573.66 445.04 573.72 445.5 573.85 445.93C574 446.41 574.22 446.83 574.52 447.19Z" fill="white"/>
<path d="M602.329 449.78C600.929 449.54 598.879 449.53 596.949 449.89C595.909 450.09 594.959 450.46 594.109 451C593.239 451.55 592.529 452.32 591.999 453.29C591.469 454.26 591.199 455.52 591.199 457.03C591.199 458.75 591.589 460.14 592.349 461.16C592.849 461.84 593.489 462.42 594.239 462.89C593.939 463.04 593.679 463.2 593.439 463.35C592.899 463.7 592.469 464.07 592.169 464.46C591.859 464.86 591.649 465.27 591.539 465.69C591.439 466.08 591.389 466.48 591.389 466.91C591.389 467.43 591.529 467.98 591.819 468.59C592.009 468.99 592.299 469.34 592.699 469.63C592.179 470.09 591.729 470.64 591.359 471.27C590.809 472.22 590.529 473.12 590.529 473.95C590.529 475.05 590.869 475.97 591.529 476.68C592.139 477.33 592.909 477.86 593.809 478.24C594.679 478.61 595.609 478.86 596.599 478.99C597.559 479.12 598.439 479.18 599.229 479.18C601.129 479.18 602.799 478.93 604.179 478.44C605.569 477.95 606.739 477.3 607.649 476.52C608.569 475.73 609.259 474.84 609.709 473.87C610.159 472.9 610.379 471.92 610.379 470.97V470.95C610.349 470.04 610.209 469.31 609.959 468.7C609.689 468.05 609.239 467.52 608.629 467.12C608.059 466.74 607.309 466.45 606.409 466.25C605.559 466.06 604.489 465.9 603.229 465.77C601.799 465.62 600.659 465.5 599.839 465.4C599.049 465.31 598.439 465.2 598.039 465.1C597.659 465 597.559 464.92 597.529 464.79C597.529 464.7 597.549 464.62 597.669 464.53C597.819 464.41 598.039 464.31 598.309 464.23C598.569 464.27 598.869 464.3 599.189 464.31C599.549 464.32 599.839 464.33 600.069 464.33C601.169 464.33 602.249 464.21 603.269 463.96C604.319 463.71 605.249 463.29 606.039 462.71C606.849 462.12 607.499 461.35 607.959 460.42C608.419 459.49 608.659 458.36 608.659 457.06C608.659 456.39 608.559 455.65 608.359 454.86C608.269 454.51 608.159 454.2 608.019 453.91H610.779V450.14H603.909C603.479 450 602.949 449.89 602.329 449.78ZM602.069 456.92C602.069 458.36 601.899 459.41 601.549 460.04C601.369 460.37 600.999 460.81 599.899 460.81C599.149 460.81 598.659 460.53 598.349 459.93C597.989 459.21 597.799 458.13 597.799 456.74C597.799 455.44 597.989 454.47 598.359 453.87C598.679 453.36 599.229 453.11 600.049 453.11C600.699 453.11 601.159 453.33 601.499 453.8C601.759 454.15 602.069 454.98 602.069 456.92ZM595.519 471.48C595.569 471.27 595.659 471.07 595.789 470.88C596.229 471 596.799 471.14 597.529 471.28C598.479 471.47 599.719 471.64 601.219 471.79C602.249 471.88 603.099 471.99 603.729 472.11C604.449 472.25 604.819 472.4 605.009 472.49C605.199 472.59 605.319 472.7 605.359 472.8C605.419 472.95 605.459 473.17 605.459 473.42C605.459 473.64 605.389 473.81 605.239 473.95C605.029 474.15 604.729 474.31 604.349 474.44C603.919 474.58 603.419 474.68 602.849 474.74C601.429 474.88 599.829 474.87 598.589 474.6C597.889 474.45 597.279 474.25 596.789 473.99C596.329 473.75 595.969 473.46 595.709 473.13C595.479 472.83 595.369 472.51 595.369 472.16C595.389 472.07 595.439 471.84 595.519 471.48Z" fill="white"/>
<path d="M637.43 466.43C637.43 466.43 637.37 466.34 637.37 466.04V455.51C637.37 454.71 637.27 453.95 637.07 453.25C636.86 452.52 636.51 451.87 636.02 451.33C635.53 450.79 634.9 450.36 634.13 450.05C632.59 449.44 630.14 449.34 628.13 450.46C627.59 450.76 627.08 451.15 626.62 451.63V440.47L618.16 441.95V444.62H618.78C619.81 444.62 620.03 444.77 620.04 444.77C620.1 444.82 620.17 444.91 620.17 445.15V466.03C620.17 466.33 620.11 466.42 620.11 466.42C620.11 466.42 620.04 466.5 619.77 466.59L618.23 467.01V469.63H628.55V467.02L627.03 466.6C626.74 466.51 626.67 466.43 626.67 466.43C626.67 466.43 626.61 466.34 626.61 466.04V455.42C626.91 455.21 627.25 455.04 627.62 454.92C628.98 454.48 630.28 454.7 630.55 455.13C630.72 455.39 630.92 455.92 630.92 457V466.04C630.92 466.34 630.86 466.42 630.86 466.42C630.86 466.42 630.79 466.5 630.52 466.59L628.98 467.01V469.62H639.3V467L637.78 466.58C637.5 466.51 637.43 466.43 637.43 466.43Z" fill="white"/>
<path d="M659.199 465.09C658.769 465.33 658.309 465.48 657.819 465.54C656.379 465.73 655.899 465.66 655.679 465.35C655.569 465.19 655.389 464.77 655.389 463.77V453.68H659.899V450.17H655.389V444.51H651.879L651.749 444.96C651.259 446.71 650.589 448.06 649.759 448.99C648.939 449.91 647.969 450.56 646.859 450.95L646.439 451.1V453.69H648.929V464.82C648.929 466.4 649.269 467.64 649.929 468.5C650.629 469.41 651.879 469.88 653.639 469.88C654.699 469.88 655.729 469.78 656.709 469.57C657.709 469.36 658.829 468.9 660.019 468.2L660.369 468L659.999 464.67L659.199 465.09Z" fill="white"/>
<path d="M687.87 441.6L687.43 449.58L690.21 449.93L692.01 446.64C692.26 446.19 692.49 445.84 692.71 445.59C692.76 445.54 692.9 445.37 693.36 445.37H695.68V465.79C695.68 466.27 695.63 466.41 695.58 466.38L693.55 466.91V469.65H704.8V466.92L702.73 466.41C702.73 466.41 702.67 466.27 702.67 465.8V445.38H704.99C705.45 445.38 705.6 445.54 705.64 445.59C705.86 445.84 706.09 446.19 706.34 446.64L708.14 449.93L710.92 449.58L710.48 441.6H687.87Z" fill="white"/>
<path d="M726.95 466.43C726.95 466.43 726.89 466.34 726.89 466.04V449.59L718.43 451.08V453.75H719.05C720.08 453.75 720.3 453.9 720.31 453.9C720.37 453.95 720.44 454.04 720.44 454.28V466.04C720.44 466.34 720.38 466.43 720.38 466.43C720.38 466.43 720.31 466.51 720.04 466.6L718.5 467.02V469.64H728.82V467.02L727.3 466.6C727.02 466.51 726.95 466.43 726.95 466.43Z" fill="white"/>
<path d="M720.59 447.19C720.89 447.56 721.28 447.85 721.75 448.08C722.22 448.31 722.78 448.42 723.41 448.42C724.53 448.42 725.44 448.05 726.12 447.33C726.79 446.62 727.12 445.7 727.12 444.6C727.12 443.64 726.83 442.78 726.27 442.04C725.67 441.25 724.7 440.85 723.41 440.85C722.23 440.85 721.3 441.25 720.66 442.02C720.05 442.76 719.73 443.63 719.73 444.59C719.73 445.04 719.79 445.5 719.92 445.93C720.06 446.41 720.28 446.83 720.59 447.19Z" fill="white"/>
<path d="M752.3 464.31C751.42 464.64 750.6 464.9 749.85 465.07C748.66 465.34 747.22 465.47 746.03 465.09C745.6 464.95 745.23 464.7 744.91 464.32C744.57 463.93 744.3 463.39 744.11 462.7C743.9 461.98 743.8 461.03 743.8 459.88C743.8 458.64 743.84 457.56 743.93 456.65C744.01 455.78 744.17 455.07 744.39 454.52C744.59 454.03 744.86 453.67 745.19 453.44C745.52 453.21 745.97 453.1 746.53 453.1C746.97 453.1 747.32 453.13 747.57 453.19C747.7 453.22 747.83 453.27 747.95 453.32V457.75H752.51L752.7 457.52C752.97 457.2 753.21 456.75 753.45 456.17C753.69 455.58 753.81 454.96 753.81 454.34C753.81 453.98 753.77 453.56 753.69 453.1C753.6 452.56 753.4 452.11 753.08 451.71C752.23 450.83 751.16 450.24 749.92 449.97C748.75 449.71 747.48 449.58 746.16 449.58C743.34 449.58 741.1 450.44 739.49 452.14C737.89 453.83 737.09 456.56 737.09 460.25C737.09 463.4 737.86 465.85 739.37 467.55C740.9 469.27 743.06 470.14 745.79 470.14C746.28 470.14 746.83 470.11 747.44 470.05C748.06 469.98 748.71 469.85 749.37 469.65C750.04 469.45 750.72 469.19 751.41 468.87C752.12 468.54 752.82 468.11 753.5 467.59L753.83 467.34L752.95 464.04L752.3 464.31Z" fill="white"/>
<path d="M781.189 466.52C781.129 466.5 781.019 466.44 780.869 466.31C780.719 466.18 780.559 466 780.379 465.78C780.179 465.53 779.939 465.19 779.639 464.76L774.889 457.84L776.379 456.23C777.019 455.54 777.529 455 777.929 454.61C778.299 454.24 778.639 453.95 778.929 453.75C779.209 453.56 779.489 453.41 779.769 453.3C780.079 453.18 780.469 453.05 780.929 452.9L781.359 452.76V450.16H772.449V452.84L772.969 452.92C773.239 452.96 773.479 453.03 773.639 453.09C773.639 453.09 773.679 453.15 773.679 453.35C773.679 453.38 773.669 453.51 773.579 453.82C773.509 454.06 773.359 454.38 773.129 454.77C772.899 455.17 772.569 455.65 772.139 456.2C771.739 456.71 771.229 457.28 770.619 457.9H770.159V440.47L761.699 441.95V444.62H762.319C763.349 444.62 763.569 444.77 763.579 444.77C763.639 444.82 763.709 444.91 763.709 445.15V466.03C763.709 466.33 763.649 466.42 763.649 466.42C763.649 466.42 763.579 466.5 763.309 466.59L761.769 467.01V469.63H772.089V467.01L770.569 466.59C770.279 466.5 770.219 466.42 770.209 466.42C770.209 466.42 770.149 466.33 770.149 466.03V461.07L775.399 469.62H782.919V467.01L781.659 466.65C781.489 466.63 781.339 466.58 781.189 466.52Z" fill="white"/>
<path d="M806.581 459.86C806.611 459.66 806.631 459.43 806.661 459.18C806.681 458.92 806.701 458.67 806.721 458.41L806.761 457.75C806.771 457.53 806.781 457.37 806.781 457.27C806.781 456.25 806.651 455.28 806.411 454.36C806.151 453.41 805.701 452.57 805.081 451.87C804.461 451.17 803.621 450.61 802.591 450.2C801.571 449.8 800.311 449.6 798.831 449.6C797.511 449.6 796.271 449.79 795.161 450.17C794.031 450.56 793.041 451.2 792.231 452.06C791.431 452.92 790.801 454.07 790.361 455.46C789.931 456.83 789.721 458.51 789.721 460.44C789.721 462.34 789.961 463.93 790.431 465.17C790.911 466.42 791.561 467.44 792.381 468.18C793.191 468.92 794.161 469.45 795.251 469.74C796.291 470.01 797.401 470.15 798.531 470.15C799.101 470.15 799.721 470.1 800.381 470.01C801.031 469.92 801.721 469.77 802.431 469.56C803.131 469.35 803.831 469.08 804.521 468.74C805.221 468.4 805.891 467.95 806.501 467.42L806.791 467.17L805.961 463.8L805.281 464.12C804.211 464.62 803.301 464.94 802.581 465.08C800.921 465.4 799.091 465.38 798.191 464.85C797.701 464.56 797.341 464.18 797.091 463.7C796.831 463.18 796.661 462.59 796.581 461.92C796.521 461.42 796.481 460.9 796.461 460.39H806.541L806.581 459.86ZM797.031 453.99C797.321 453.39 797.761 453.12 798.451 453.12C798.931 453.12 799.291 453.21 799.531 453.38C799.791 453.57 799.991 453.84 800.131 454.18C800.291 454.57 800.401 455.01 800.441 455.51C800.491 456.03 800.511 456.55 800.511 457.09H796.451C796.531 455.66 796.721 454.62 797.031 453.99Z" fill="white"/>
<path d="M826.879 465.09C826.449 465.33 825.989 465.48 825.499 465.54C824.059 465.73 823.569 465.66 823.359 465.35C823.249 465.19 823.069 464.77 823.069 463.77V453.68H827.579V450.17H823.069V444.51H819.559L819.429 444.96C818.939 446.71 818.269 448.06 817.439 448.99C816.619 449.91 815.649 450.56 814.539 450.95L814.119 451.1V453.69H816.609V464.82C816.609 466.4 816.949 467.64 817.609 468.5C818.309 469.41 819.559 469.88 821.319 469.88C822.379 469.88 823.409 469.78 824.389 469.57C825.389 469.36 826.509 468.9 827.699 468.2L828.049 468L827.679 464.67L826.879 465.09Z" fill="white"/>
<path d="M850.469 459.04C849.849 458.57 849.059 458.12 848.119 457.73C847.219 457.35 846.159 456.95 844.959 456.53C843.759 456.1 843.219 455.78 842.989 455.59C842.739 455.38 842.619 455.09 842.619 454.68C842.619 454.53 842.649 454.35 842.689 454.14C842.729 453.97 842.809 453.81 842.929 453.66C843.039 453.52 843.219 453.4 843.459 453.29C843.719 453.18 844.059 453.12 844.489 453.12C845.149 453.12 845.519 453.16 845.709 453.2C845.849 453.23 845.979 453.26 846.099 453.31V456.36H850.029L850.199 456.22C850.589 455.9 850.899 455.4 851.139 454.7C851.359 454.05 851.469 453.48 851.469 452.96C851.469 452.58 851.449 452.24 851.409 451.92C851.369 451.56 851.269 451.21 851.119 450.88L850.999 450.62L850.729 450.54C849.699 450.24 848.669 450.01 847.669 449.85C846.669 449.7 845.459 449.62 844.079 449.62C843.059 449.62 842.089 449.74 841.189 449.97C840.259 450.22 839.429 450.6 838.729 451.11C838.009 451.63 837.429 452.3 837.019 453.09C836.599 453.88 836.389 454.84 836.389 455.93C836.389 456.65 836.479 457.32 836.659 457.91C836.849 458.54 837.199 459.12 837.699 459.64C838.179 460.13 838.839 460.6 839.639 461.02C840.419 461.43 841.429 461.85 842.639 462.28C843.369 462.55 843.969 462.78 844.449 462.99C844.879 463.18 845.229 463.37 845.469 463.56C845.669 463.71 845.799 463.87 845.869 464.04C845.949 464.24 845.989 464.48 845.989 464.77C845.989 465.44 845.809 465.9 845.449 466.18C845.039 466.5 844.519 466.66 843.859 466.66C843.259 466.66 842.759 466.62 842.379 466.54C842.149 466.49 841.949 466.43 841.759 466.36V462.89H837.409L837.219 463.13C836.849 463.62 836.589 464.16 836.459 464.75C836.339 465.3 836.279 465.73 836.279 466.08C836.279 466.87 836.449 467.61 836.789 468.29L836.989 468.52C837.429 468.83 837.959 469.08 838.559 469.29C839.119 469.48 839.709 469.65 840.299 469.77C840.889 469.9 841.479 470 842.059 470.06C842.639 470.12 843.179 470.15 843.669 470.15C844.859 470.15 845.989 470.02 847.039 469.76C848.119 469.49 849.059 469.07 849.839 468.5C850.629 467.93 851.269 467.2 851.739 466.34C852.209 465.47 852.449 464.44 852.449 463.27C852.449 462.28 852.279 461.45 851.959 460.78C851.629 460.13 851.129 459.54 850.469 459.04Z" fill="white"/>
<path d="M907.399 464.199C907.079 464.529 906.769 464.769 906.479 464.889C905.859 465.149 905.399 465.109 904.989 464.999C904.809 464.949 904.599 464.839 904.369 464.669C904.119 464.489 903.829 464.219 903.509 463.879C903.239 463.599 902.939 463.249 902.599 462.829C902.889 462.409 903.219 461.939 903.599 461.409C904.109 460.699 904.589 459.879 905.029 458.999C905.249 458.569 905.429 458.209 905.579 457.939C905.689 457.739 905.809 457.589 905.949 457.479C906.079 457.379 906.249 457.299 906.449 457.249C906.729 457.179 907.119 457.109 907.619 457.039L908.159 456.959V454.129H898.909V456.799L899.349 456.939C899.719 457.059 900.019 457.159 900.239 457.259C900.439 457.339 900.539 457.419 900.579 457.459C900.599 457.479 900.639 457.519 900.649 457.609C900.679 457.759 900.689 457.949 900.689 458.169C900.689 458.329 900.649 458.539 900.579 458.769C900.499 459.039 900.409 459.319 900.289 459.589C900.189 459.819 900.089 460.039 899.969 460.249L894.989 454.549C895.649 454.279 896.269 453.989 896.839 453.689C897.689 453.239 898.429 452.699 899.029 452.089C899.659 451.469 900.149 450.739 900.499 449.929C900.859 449.109 901.039 448.159 901.039 447.119C901.039 445.869 900.739 444.839 900.159 444.039C899.599 443.269 898.889 442.659 898.049 442.219C897.229 441.789 896.329 441.499 895.369 441.339C893.099 440.969 891.089 441.049 889.319 441.579C888.279 441.899 887.349 442.359 886.569 442.949C885.779 443.549 885.149 444.289 884.699 445.149C884.239 446.019 884.009 446.999 884.009 448.059C884.009 448.649 884.049 449.219 884.129 449.729C884.209 450.259 884.369 450.819 884.619 451.399C884.859 451.969 885.199 452.579 885.629 453.219C885.919 453.659 886.269 454.129 886.679 454.649C886.049 454.889 885.449 455.149 884.889 455.429C884.049 455.859 883.309 456.399 882.679 457.039C882.039 457.699 881.529 458.499 881.169 459.429C880.809 460.349 880.619 461.489 880.619 462.799C880.619 463.889 880.849 464.899 881.299 465.809C881.749 466.709 882.349 467.499 883.109 468.149C883.859 468.789 884.749 469.299 885.759 469.659C887.889 470.409 890.609 470.259 892.389 469.949C893.349 469.779 894.159 469.549 894.869 469.259C895.579 468.969 896.189 468.619 896.709 468.239C897.049 467.989 897.389 467.719 897.729 467.429C898.179 467.909 898.609 468.319 898.999 468.649C899.509 469.069 900.009 469.399 900.479 469.639C900.949 469.879 901.429 470.039 901.909 470.109C902.349 470.179 902.799 470.209 903.279 470.209C903.759 470.209 904.229 470.139 904.689 470.019C905.149 469.889 905.639 469.679 906.119 469.389C906.599 469.109 907.099 468.73 907.619 468.28C908.129 467.84 908.689 467.309 909.299 466.689L909.639 466.339L907.949 463.639L907.399 464.199ZM895.069 464.729C894.579 464.989 894.099 465.189 893.619 465.319C892.339 465.689 891.199 465.679 890.159 465.429C889.689 465.309 889.289 465.119 888.919 464.819C888.569 464.539 888.279 464.149 888.059 463.659C887.839 463.169 887.729 462.519 887.729 461.719C887.729 461.349 887.759 460.949 887.819 460.509C887.869 460.089 887.979 459.669 888.119 459.249C888.259 458.849 888.469 458.469 888.719 458.119C888.869 457.919 889.039 457.729 889.239 457.559L895.069 464.729ZM895.219 448.509C895.139 448.899 894.979 449.299 894.769 449.669C894.549 450.049 894.249 450.429 893.859 450.789C893.559 451.069 893.179 451.379 892.739 451.699C892.409 451.309 892.109 450.939 891.859 450.609C891.529 450.179 891.259 449.769 891.049 449.399C890.849 449.039 890.709 448.709 890.629 448.399C890.549 448.089 890.499 447.769 890.499 447.429C890.499 447.129 890.539 446.819 890.609 446.489C890.679 446.209 890.799 445.949 890.989 445.709C891.179 445.469 891.439 445.279 891.779 445.119C892.119 444.959 892.569 444.879 893.119 444.879C893.829 444.879 894.359 445.079 894.769 445.479C895.179 445.879 895.369 446.419 895.369 447.129C895.349 447.639 895.309 448.099 895.219 448.509Z" fill="white"/>
<path d="M952.19 444.33L954.25 444.84C954.25 444.84 954.31 444.98 954.31 445.46V453.25H945.87V445.46C945.87 444.98 945.93 444.83 946 444.87L948.03 444.34V441.6H936.74V444.34L938.8 444.84C938.8 444.84 938.86 444.98 938.86 445.46V465.79C938.86 466.29 938.79 466.4 938.77 466.38L936.74 466.91V469.65H948V466.92L945.94 466.41C945.94 466.41 945.88 466.27 945.88 465.79V457.14H954.32V465.79C954.32 466.24 954.27 466.37 954.19 466.38L952.2 466.91V469.64H963.45V466.91L961.39 466.41C961.39 466.4 961.33 466.27 961.33 465.79V445.46C961.33 444.99 961.4 444.83 961.47 444.87L963.46 444.34V441.61H952.21V444.33H952.19Z" fill="white"/>
<path d="M988.3 451.74C987.48 450.98 986.47 450.43 985.29 450.09C983.08 449.46 980.03 449.42 977.65 450.09C976.46 450.43 975.43 451.02 974.57 451.84C973.7 452.66 973.03 453.76 972.55 455.12C972.08 456.45 971.84 458.12 971.84 460.09C971.84 463.28 972.58 465.77 974.05 467.51C975.54 469.27 977.94 470.17 981.17 470.17C982.63 470.17 983.95 469.96 985.11 469.56C986.31 469.14 987.34 468.47 988.19 467.55C989.03 466.65 989.68 465.48 990.13 464.08C990.57 462.71 990.79 461.05 990.79 459.13C990.79 457.43 990.58 455.96 990.16 454.76C989.74 453.51 989.11 452.5 988.3 451.74ZM978.65 456.5C978.71 455.69 978.84 455 979.05 454.46C979.24 453.99 979.5 453.66 979.84 453.44C980.2 453.22 980.71 453.11 981.36 453.11C982 453.11 982.51 453.22 982.85 453.44C983.18 453.65 983.43 453.98 983.61 454.44C983.81 454.96 983.94 455.63 984 456.43C984.06 457.29 984.09 458.3 984.09 459.42C984.09 460.85 984.03 462.06 983.93 463.02C983.83 463.95 983.65 464.7 983.41 465.28C983.2 465.78 982.94 466.14 982.61 466.34C982.28 466.55 981.83 466.65 981.28 466.65C980.33 466.65 979.7 466.21 979.28 465.28C978.8 464.2 978.55 462.28 978.55 459.57C978.56 458.4 978.59 457.37 978.65 456.5Z" fill="white"/>
<path d="M1011.1 465.09C1010.67 465.33 1010.21 465.48 1009.72 465.54C1008.27 465.73 1007.79 465.66 1007.58 465.35C1007.47 465.19 1007.29 464.77 1007.29 463.77V453.68H1011.8V450.17H1007.29V444.51H1003.78L1003.65 444.96C1003.16 446.71 1002.49 448.06 1001.66 448.99C1000.84 449.91 999.87 450.56 998.76 450.95L998.34 451.1V453.69H1000.83V464.82C1000.83 466.4 1001.17 467.64 1001.83 468.5C1002.53 469.41 1003.78 469.88 1005.54 469.88C1006.6 469.88 1007.63 469.78 1008.61 469.57C1009.61 469.36 1010.73 468.9 1011.92 468.2L1012.27 468L1011.9 464.67L1011.1 465.09Z" fill="white"/>
<path d="M1037.07 459.86C1037.09 459.66 1037.12 459.43 1037.15 459.18C1037.17 458.92 1037.19 458.67 1037.21 458.41L1037.25 457.75C1037.26 457.53 1037.27 457.37 1037.27 457.27C1037.27 456.25 1037.14 455.28 1036.9 454.36C1036.64 453.41 1036.19 452.57 1035.57 451.87C1034.95 451.17 1034.11 450.61 1033.08 450.2C1032.07 449.8 1030.8 449.6 1029.32 449.6C1027.99 449.6 1026.76 449.79 1025.66 450.17C1024.53 450.56 1023.54 451.2 1022.73 452.06C1021.93 452.92 1021.3 454.07 1020.86 455.46C1020.43 456.83 1020.22 458.51 1020.22 460.44C1020.22 462.34 1020.46 463.93 1020.93 465.17C1021.41 466.42 1022.06 467.44 1022.88 468.18C1023.69 468.92 1024.66 469.45 1025.75 469.74C1026.79 470.01 1027.9 470.15 1029.04 470.15C1029.61 470.15 1030.23 470.1 1030.89 470.01C1031.54 469.92 1032.23 469.77 1032.94 469.56C1033.64 469.35 1034.34 469.08 1035.02 468.74C1035.72 468.4 1036.39 467.95 1037 467.42L1037.29 467.17L1036.46 463.8L1035.78 464.12C1034.71 464.62 1033.8 464.94 1033.08 465.08C1031.42 465.4 1029.59 465.38 1028.69 464.85C1028.2 464.56 1027.84 464.18 1027.59 463.7C1027.33 463.18 1027.16 462.59 1027.08 461.92C1027.02 461.42 1026.98 460.9 1026.96 460.39H1037L1037.07 459.86ZM1027.52 453.99C1027.82 453.39 1028.25 453.12 1028.94 453.12C1029.42 453.12 1029.78 453.21 1030.02 453.38C1030.28 453.57 1030.47 453.84 1030.62 454.18C1030.78 454.57 1030.88 455.01 1030.93 455.51C1030.98 456.03 1031 456.55 1031 457.09H1026.94C1027.01 455.66 1027.21 454.62 1027.52 453.99Z" fill="white"/>
<path d="M1053.62 466.43C1053.62 466.43 1053.56 466.34 1053.56 466.04V440.47L1045.1 441.95V444.62H1045.72C1046.75 444.62 1046.97 444.77 1046.98 444.77C1047.04 444.82 1047.11 444.91 1047.11 445.15V466.03C1047.11 466.33 1047.05 466.42 1047.05 466.42C1047.05 466.42 1046.98 466.5 1046.71 466.59L1045.17 467.01V469.63H1055.49V467.01L1053.97 466.59C1053.69 466.51 1053.62 466.43 1053.62 466.43Z" fill="white"/>
<path d="M1105.28 444.01C1104.15 442.92 1102.78 442.16 1101.21 441.74C1098.12 440.91 1094.04 440.93 1091 441.76C1089.42 442.2 1088.04 442.97 1086.9 444.07C1085.76 445.17 1084.88 446.67 1084.29 448.53C1083.7 450.36 1083.4 452.71 1083.4 455.51C1083.4 458.24 1083.68 460.56 1084.23 462.41C1084.79 464.3 1085.62 465.84 1086.69 466.99C1087.78 468.16 1089.14 469 1090.74 469.49C1092.29 469.96 1094.08 470.2 1096.08 470.2C1098 470.2 1099.76 469.94 1101.3 469.42C1102.88 468.89 1104.25 468.02 1105.35 466.84C1106.46 465.65 1107.31 464.11 1107.89 462.25C1108.47 460.41 1108.76 458.14 1108.76 455.51C1108.76 452.68 1108.46 450.31 1107.87 448.47C1107.28 446.59 1106.4 445.09 1105.28 444.01ZM1096.08 466.43C1094.96 466.43 1094.05 466.22 1093.37 465.8C1092.7 465.39 1092.17 464.75 1091.79 463.9C1091.38 462.99 1091.1 461.82 1090.95 460.44C1090.79 459.02 1090.71 457.32 1090.71 455.37C1090.71 453.22 1090.83 451.42 1091.07 450.04C1091.3 448.69 1091.66 447.62 1092.12 446.85C1092.56 446.13 1093.1 445.62 1093.74 445.34C1094.41 445.04 1095.24 444.89 1096.19 444.89C1097.04 444.89 1097.8 445.04 1098.45 445.33C1099.06 445.61 1099.59 446.11 1100.02 446.84C1100.48 447.61 1100.83 448.69 1101.08 450.04C1101.33 451.43 1101.46 453.22 1101.46 455.36C1101.46 459.17 1101.03 462.04 1100.19 463.89C1099.41 465.6 1098.07 466.43 1096.08 466.43Z" fill="white"/>
<path d="M1130.57 449.77C1129.42 449.49 1128.35 449.48 1127.38 449.87C1126.9 450.07 1126.45 450.34 1126.06 450.68C1125.84 450.86 1125.64 451.06 1125.45 451.27V449.479L1116.99 450.96V453.63H1117.61C1118.64 453.63 1118.86 453.78 1118.87 453.78C1118.93 453.83 1119 453.929 1119 454.159V466.03C1119 466.33 1118.94 466.419 1118.94 466.419C1118.94 466.419 1118.87 466.5 1118.6 466.59L1117.06 467.01V469.63H1127.57V467.01L1126.05 466.59C1125.82 466.52 1125.65 466.43 1125.53 466.32C1125.5 466.29 1125.45 466.169 1125.45 465.919V455.33C1125.8 454.97 1126.04 454.83 1126.19 454.78C1127.01 454.49 1127.77 454.62 1128.65 454.9C1129.21 455.08 1129.86 455.43 1130.57 455.96L1131.3 456.5L1132.8 451.02L1132.48 450.77C1131.8 450.25 1131.16 449.91 1130.57 449.77Z" fill="white"/>
<path d="M1158.5 466.63C1158.25 466.55 1158.14 466.48 1158.05 466.37C1158.03 466.28 1158.01 466.099 1158.01 465.789V440.479L1149.55 441.96V444.63H1150.17C1151.2 444.63 1151.42 444.78 1151.43 444.78C1151.49 444.83 1151.56 444.919 1151.56 445.159V449.94C1151.33 449.89 1151.09 449.83 1150.83 449.78C1150.23 449.66 1149.56 449.599 1148.83 449.599C1147.56 449.599 1146.36 449.79 1145.26 450.15C1144.14 450.53 1143.15 451.15 1142.33 452C1141.51 452.85 1140.87 453.96 1140.42 455.31C1139.98 456.63 1139.75 458.25 1139.75 460.12C1139.75 462.04 1139.96 463.66 1140.38 464.93C1140.8 466.22 1141.37 467.269 1142.07 468.039C1142.79 468.819 1143.62 469.38 1144.54 469.7C1145.43 470.01 1146.36 470.159 1147.29 470.159C1148.43 470.159 1149.49 469.909 1150.44 469.419C1150.96 469.149 1151.43 468.82 1151.86 468.43L1151.97 469.64H1159.93V467L1159.45 466.89C1159.07 466.8 1158.75 466.71 1158.5 466.63ZM1150.92 453.479C1151.15 453.519 1151.36 453.57 1151.56 453.62V464.83C1151.31 465 1151.02 465.16 1150.68 465.31C1150.27 465.49 1149.82 465.58 1149.31 465.58C1148.29 465.58 1147.62 465.209 1147.19 464.419C1146.71 463.529 1146.46 462.029 1146.46 459.969C1146.46 458.609 1146.54 457.48 1146.71 456.59C1146.87 455.75 1147.1 455.07 1147.39 454.58C1147.66 454.13 1147.98 453.829 1148.36 453.659C1148.77 453.469 1149.26 453.38 1149.82 453.38C1150.17 453.37 1150.54 453.409 1150.92 453.479Z" fill="white"/>
<path d="M1185.07 459.86C1185.09 459.66 1185.12 459.43 1185.15 459.18C1185.17 458.92 1185.19 458.67 1185.21 458.41L1185.25 457.75C1185.26 457.53 1185.27 457.37 1185.27 457.27C1185.27 456.25 1185.14 455.28 1184.9 454.36C1184.64 453.41 1184.19 452.57 1183.57 451.87C1182.95 451.17 1182.11 450.61 1181.08 450.2C1180.07 449.8 1178.8 449.6 1177.32 449.6C1175.99 449.6 1174.76 449.79 1173.66 450.17C1172.53 450.56 1171.54 451.2 1170.73 452.06C1169.93 452.92 1169.3 454.07 1168.86 455.46C1168.43 456.83 1168.22 458.51 1168.22 460.44C1168.22 462.34 1168.46 463.93 1168.93 465.17C1169.41 466.42 1170.06 467.44 1170.88 468.18C1171.69 468.92 1172.66 469.45 1173.75 469.74C1174.79 470.01 1175.9 470.15 1177.04 470.15C1177.61 470.15 1178.23 470.1 1178.89 470.01C1179.54 469.92 1180.23 469.77 1180.94 469.56C1181.64 469.35 1182.34 469.08 1183.02 468.74C1183.72 468.4 1184.39 467.95 1185 467.42L1185.29 467.17L1184.46 463.8L1183.78 464.12C1182.71 464.62 1181.8 464.94 1181.08 465.08C1179.42 465.4 1177.59 465.38 1176.69 464.85C1176.2 464.56 1175.84 464.18 1175.59 463.7C1175.33 463.18 1175.16 462.59 1175.08 461.92C1175.02 461.42 1174.98 460.9 1174.96 460.39H1185L1185.07 459.86ZM1175.52 453.99C1175.82 453.39 1176.25 453.12 1176.94 453.12C1177.42 453.12 1177.78 453.21 1178.02 453.38C1178.28 453.57 1178.47 453.84 1178.62 454.18C1178.78 454.57 1178.88 455.01 1178.93 455.51C1178.98 456.03 1179 456.55 1179 457.09H1174.94C1175.01 455.66 1175.21 454.62 1175.52 453.99Z" fill="white"/>
<path d="M1206.69 449.77C1205.54 449.49 1204.47 449.48 1203.5 449.87C1203.02 450.07 1202.57 450.34 1202.18 450.68C1201.96 450.86 1201.76 451.06 1201.57 451.27V449.479L1193.11 450.96V453.63H1193.73C1194.76 453.63 1194.98 453.78 1194.99 453.78C1195.05 453.83 1195.12 453.929 1195.12 454.159V466.03C1195.12 466.33 1195.06 466.419 1195.06 466.419C1195.06 466.419 1194.99 466.5 1194.72 466.59L1193.18 467.01V469.63H1203.69V467.01L1202.17 466.59C1201.94 466.52 1201.77 466.43 1201.65 466.32C1201.62 466.29 1201.57 466.169 1201.57 465.919V455.33C1201.92 454.97 1202.16 454.83 1202.31 454.78C1203.14 454.49 1203.89 454.62 1204.77 454.9C1205.33 455.08 1205.98 455.43 1206.69 455.96L1207.42 456.5L1208.92 451.02L1208.6 450.77C1207.92 450.25 1207.28 449.91 1206.69 449.77Z" fill="white"/>
<path d="M1232.6 460.8C1232.27 460.13 1231.77 459.54 1231.12 459.04C1230.5 458.57 1229.71 458.12 1228.77 457.73C1227.87 457.35 1226.81 456.95 1225.61 456.53C1224.41 456.1 1223.88 455.78 1223.64 455.59C1223.39 455.38 1223.27 455.09 1223.27 454.68C1223.27 454.53 1223.29 454.35 1223.35 454.14C1223.39 453.97 1223.47 453.81 1223.59 453.66C1223.7 453.52 1223.88 453.4 1224.12 453.29C1224.38 453.18 1224.72 453.12 1225.15 453.12C1225.8 453.12 1226.18 453.16 1226.37 453.2C1226.51 453.23 1226.64 453.26 1226.76 453.31V456.36H1230.69L1230.86 456.22C1231.25 455.9 1231.56 455.4 1231.8 454.7C1232.02 454.05 1232.13 453.48 1232.13 452.96C1232.13 452.58 1232.11 452.24 1232.07 451.92C1232.03 451.56 1231.93 451.21 1231.78 450.88L1231.66 450.62L1231.39 450.54C1230.36 450.24 1229.33 450.01 1228.33 449.85C1227.33 449.7 1226.12 449.62 1224.74 449.62C1223.72 449.62 1222.75 449.74 1221.85 449.97C1220.92 450.22 1220.09 450.6 1219.39 451.11C1218.67 451.63 1218.09 452.3 1217.68 453.09C1217.26 453.88 1217.05 454.84 1217.05 455.93C1217.05 456.65 1217.14 457.32 1217.32 457.91C1217.51 458.54 1217.86 459.12 1218.36 459.64C1218.84 460.13 1219.49 460.6 1220.3 461.02C1221.08 461.43 1222.09 461.85 1223.3 462.28C1224.03 462.55 1224.63 462.78 1225.11 462.99C1225.54 463.18 1225.89 463.37 1226.13 463.56C1226.33 463.71 1226.46 463.87 1226.53 464.04C1226.61 464.24 1226.65 464.48 1226.65 464.77C1226.65 465.44 1226.47 465.9 1226.11 466.18C1225.7 466.5 1225.18 466.66 1224.52 466.66C1223.92 466.66 1223.42 466.62 1223.04 466.54C1222.81 466.49 1222.61 466.43 1222.42 466.36V462.89H1218.07L1217.89 463.13C1217.52 463.62 1217.26 464.16 1217.12 464.75C1217 465.3 1216.94 465.73 1216.94 466.08C1216.94 466.87 1217.11 467.61 1217.45 468.29L1217.65 468.52C1218.09 468.83 1218.62 469.08 1219.22 469.29C1219.78 469.48 1220.37 469.65 1220.96 469.77C1221.55 469.9 1222.14 470 1222.72 470.06C1223.3 470.12 1223.84 470.15 1224.33 470.15C1225.52 470.15 1226.65 470.02 1227.7 469.76C1228.78 469.49 1229.72 469.07 1230.5 468.5C1231.29 467.93 1231.93 467.2 1232.4 466.34C1232.87 465.47 1233.11 464.44 1233.11 463.27C1233.09 462.3 1232.93 461.46 1232.6 460.8Z" fill="white"/>
</svg>
