<?xml version="1.0"?>
<svg xmlns="http://www.w3.org/2000/svg" xmlns:xlink="http://www.w3.org/1999/xlink" xmlns:svgjs="http://svgjs.com/svgjs" version="1.1" width="512" height="512" x="0" y="0" viewBox="0 0 512 512" style="enable-background:new 0 0 512 512" xml:space="preserve" class=""><g><g xmlns="http://www.w3.org/2000/svg"><path d="m77.65 188.2c5.983 5.062 14.707 5.071 20.7 0 2.52-2.13 61.65-52.91 61.65-107.2 0-40.25-32.3-73-72-73s-72 32.75-72 73c0 54.29 59.13 105.07 61.65 107.2zm10.35-132.2c13.25 0 24 10.75 24 24s-10.75 24-24 24-24-10.75-24-24 10.75-24 24-24z" fill="#ffffff" data-original="#000000" style="" class=""/><path d="m72 224c0 8.84 7.16 16 16 16h168c26.47 0 48 21.53 48 48s-21.53 48-48 48h-12.305c-5.542-9.555-15.877-16-27.695-16-17.645 0-32 14.355-32 32s14.355 32 32 32c11.818 0 22.153-6.445 27.695-16h12.305c44.11 0 80-35.89 80-80s-35.89-80-80-80h-168c-8.84 0-16 7.16-16 16z" fill="#ffffff" data-original="#000000" style="" class=""/><path d="m76 456c-24.006 0-43.586-19.329-43.994-43.239-.419-24.615 20.156-44.761 44.774-44.761h73.288c2.741 0 4.702-2.706 3.782-5.288-2.446-6.866-2.495-14.449.002-21.439.92-2.575-1.056-5.273-3.79-5.273h-73.094c-41.845 0-76.564 33.416-76.965 75.259-.404 42.248 33.84 76.741 75.997 76.741h2.069c2.741 0 4.702-2.706 3.782-5.288-2.446-6.866-2.495-14.449.002-21.439.92-2.575-1.056-5.273-3.79-5.273z" fill="#ffffff" data-original="#000000" style="" class=""/><path d="m171.695 456c-5.892-10.159-17.202-16.802-29.951-15.922-15.774 1.089-28.561 13.861-29.663 29.634-1.306 18.675 13.518 34.288 31.919 34.288 11.818 0 22.153-6.445 27.695-16h242.374c2.741 0 4.702-2.706 3.782-5.288-2.446-6.866-2.495-14.449.002-21.439.92-2.575-1.056-5.273-3.79-5.273z" fill="#ffffff" data-original="#000000" style="" class=""/><path d="m496 444.305c0-37.945 0-142.288 0-180.305 0-8.84-7.16-16-16-16h-96c-8.84 0-16 7.16-16 16v80c0 8.84 7.16 16 16 16h80v84.305c-9.555 5.542-16 15.876-16 27.695 0 17.645 14.355 32 32 32s32-14.355 32-32c0-11.818-6.445-22.153-16-27.695z" fill="#ffffff" data-original="#000000" style="" class=""/></g></g></svg>
